<svg xmlns="http://www.w3.org/2000/svg" xmlns:xlink="http://www.w3.org/1999/xlink" width="1240" height="609.8"><g transform="translate(-60 -12)"><path d="M545 32h270v48H545z" fill="none"/><use xlink:href="#a" transform="matrix(1,0,0,1,550,37) translate(24.799999999999983 22.6)"/><use xlink:href="#b" transform="matrix(1,0,0,1,550,37) translate(71.39999999999998 22.6)"/><use xlink:href="#c" transform="matrix(1,0,0,1,550,37) translate(173.25 22.6)"/><path d="M880 360c0 110.46-89.54 200-200 200s-200-89.54-200-200 89.54-200 200-200 200 89.54 200 200z" stroke="#000" stroke-width="2" fill="#fff"/><use xlink:href="#d" transform="matrix(1,0,0,1,485,165) translate(97.5 198.6)"/><use xlink:href="#e" transform="matrix(1,0,0,1,485,165) translate(141.7 198.6)"/><use xlink:href="#f" transform="matrix(1,0,0,1,485,165) translate(235.55 198.6)"/><path d="M80 320h160v80H80z" stroke="#000" stroke-width="2" fill="#fff"/><use xlink:href="#g" transform="matrix(1,0,0,1,85,325) translate(56.05 38.6)"/><path d="M1120 240h160v80h-160z" stroke="#000" stroke-width="2" fill="#fff"/><use xlink:href="#h" transform="matrix(1,0,0,1,1125,245) translate(45.025 27.799999999999997)"/><use xlink:href="#i" transform="matrix(1,0,0,1,1125,245) translate(22.124999999999993 49.4)"/><path d="M1200 240V122c0-1.1-.9-2-2-2H682c-1.1 0-2 .9-2 2v38" stroke="#000" stroke-width="2" fill="none"/><path d="M680 160l-4.64-14.27h9.28z"/><path d="M681.04 160.02L680 160h-1.05L674 144.74h12zm-4.3-13.3l3.26 10.04 3.26-10.03z"/><path fill="#fff" d="M843.8 109.2h185.72v21.6h-185.7z"/><use xlink:href="#j" transform="matrix(1,0,0,1,843.8130841382678,109.2) translate(0 14.4)"/><use xlink:href="#k" transform="matrix(1,0,0,1,843.8130841382678,109.2) translate(96.9 14.4)"/><path d="M1201 481v119H680v-40" stroke="#000" stroke-width="2" fill="none"/><path d="M1205.63 495.27h-9.28L1201 481z"/><path d="M1207 496.27h-12.02l5.28-16.27h1.46zm-9.27-2h6.52l-3.26-10.03zM680 560h-1v-.02zm1 0h-1 1z"/><path fill="#fff" d="M809.52 589.2h239.86v21.6H809.52z"/><use xlink:href="#l" transform="matrix(1,0,0,1,809.5175930918454,589.2) translate(0 14.4)"/><use xlink:href="#m" transform="matrix(1,0,0,1,809.5175930918454,589.2) translate(70.20000000000002 14.4)"/><use xlink:href="#n" transform="matrix(1,0,0,1,809.5175930918454,589.2) translate(112.10000000000002 14.4)"/><use xlink:href="#o" transform="matrix(1,0,0,1,809.5175930918454,589.2) translate(151.00000000000003 14.4)"/><path d="M240 360h240" stroke="#000" stroke-width="2" fill="none"/><path d="M480 360l-14.27 4.64v-9.28z"/><path d="M480.02 358.96L480 360v1.05L464.74 366v-12zm-13.3 4.3l10.04-3.26-10.03-3.26z"/><path fill="#fff" d="M309.57 349.2h100.86v21.6H309.57z"/><use xlink:href="#p" transform="matrix(1,0,0,1,309.575,349.2) translate(0 14.4)"/><use xlink:href="#q" transform="matrix(1,0,0,1,309.575,349.2) translate(48.95 14.4)"/><path d="M518.05 240.96H161.18V319" stroke="#000" stroke-width="2" fill="none"/><path d="M518.55 241.96h-.5v-2h2.02zM161.18 319l-4.63-14.27h9.27z"/><path d="M161.9 320h-1.44l-5.3-16.27h12.04zm-3.98-14.27l3.26 10.03 3.26-10.03z"/><path fill="#fff" d="M248.2 230.16h190.56v21.6H248.2z"/><use xlink:href="#r" transform="matrix(1,0,0,1,248.19722837317315,230.1607520584299) translate(0 14.4)"/><use xlink:href="#n" transform="matrix(1,0,0,1,248.19722837317315,230.1607520584299) translate(68.9 14.4)"/><use xlink:href="#s" transform="matrix(1,0,0,1,248.19722837317315,230.1607520584299) translate(107.80000000000001 14.4)"/><path d="M160 400v78.47h357.66" stroke="#000" stroke-width="2" fill="none"/><path d="M517.66 478.47l-14.26 4.64v-9.26z"/><path d="M518.28 477.62l1 1.38-16.88 5.48v-12.02zm-13.88 4.1l10.03-3.25-10.03-3.26z"/><path fill="#fff" d="M245.45 467.67H428.5v21.6H245.46z"/><g><use xlink:href="#t" transform="matrix(1,0,0,1,245.4470814572896,467.6719207970263) translate(0 14.4)"/><use xlink:href="#n" transform="matrix(1,0,0,1,245.4470814572896,467.6719207970263) translate(55.300000000000004 14.4)"/><use xlink:href="#o" transform="matrix(1,0,0,1,245.4470814572896,467.6719207970263) translate(94.2 14.4)"/></g><path d="M1120 400h160v80h-160z" stroke="#000" stroke-width="2" fill="#fff"/><g><use xlink:href="#u" transform="matrix(1,0,0,1,1125,405) translate(43.05 38.6)"/></g><path d="M1120 280h-40v80H880" stroke="#000" stroke-width="2" fill="none"/><path d="M894.27 364.64L880 360l14.27-4.64z"/><path d="M895.27 366l-15.3-4.96.03-1.04v-1.05l15.27-4.96zm-12.03-6l10.03 3.26v-6.52z"/><path d="M1120 440h-40v-80H880" stroke="#000" stroke-width="2" fill="none"/><path d="M894.27 364.64L880 360l14.27-4.64z"/><path d="M895.27 366l-15.3-4.96.03-1.04v-1.05l15.27-4.96zm-12.03-6l10.03 3.26v-6.52z"/><path fill="#fff" d="M927.92 349.2h100.86v21.6H927.92z"/><g><use xlink:href="#p" transform="matrix(1,0,0,1,927.9199679897803,349.2) translate(0 14.4)"/><use xlink:href="#q" transform="matrix(1,0,0,1,927.9199679897803,349.2) translate(48.95 14.4)"/></g><defs><path d="M136-208V0H84v-208H4v-40h212v40h-80" id="v"/><path d="M25-224v-37h50v37H25zM25 0v-190h50V0H25" id="w"/><path d="M220-157c-53 9-28 100-34 157h-49v-107c1-27-5-49-29-50C55-147 81-57 75 0H25l-1-190h47c2 12-1 28 3 38 10-53 101-56 108 0 13-22 24-43 59-42 82 1 51 116 57 194h-49v-107c-1-25-5-48-29-50" id="x"/><path d="M185-48c-13 30-37 53-82 52C43 2 14-33 14-96s30-98 90-98c62 0 83 45 84 108H66c0 31 8 55 39 56 18 0 30-7 34-22zm-45-69c5-46-57-63-70-21-2 6-4 13-4 21h74" id="y"/><g id="a"><use transform="matrix(0.05,0,0,0.05,0,0)" xlink:href="#v"/><use transform="matrix(0.05,0,0,0.05,10.600000000000001,0)" xlink:href="#w"/><use transform="matrix(0.05,0,0,0.05,15.600000000000001,0)" xlink:href="#x"/><use transform="matrix(0.05,0,0,0.05,31.6,0)" xlink:href="#y"/></g><path d="M135-150c-39-12-60 13-60 57V0H25l-1-190h47c2 13-1 29 3 40 6-28 27-53 61-41v41" id="z"/><path d="M137-138c1-29-70-34-71-4 15 46 118 7 119 86 1 83-164 76-172 9l43-7c4 19 20 25 44 25 33 8 57-30 24-41C81-84 22-81 20-136c-2-80 154-74 161-7" id="A"/><path d="M128 0H69L1-190h53L99-40l48-150h52" id="B"/><path d="M133-34C117-15 103 5 69 4 32 3 11-16 11-54c-1-60 55-63 116-61 1-26-3-47-28-47-18 1-26 9-28 27l-52-2c7-38 36-58 82-57s74 22 75 68l1 82c-1 14 12 18 25 15v27c-30 8-71 5-69-32zm-48 3c29 0 43-24 42-57-32 0-66-3-65 30 0 17 8 27 23 27" id="C"/><path d="M115-3C79 11 28 4 28-45v-112H4v-33h27l15-45h31v45h36v33H77v99c-1 23 16 31 38 25v30" id="D"/><path d="M110-194c64 0 96 36 96 99 0 64-35 99-97 99-61 0-95-36-95-99 0-62 34-99 96-99zm-1 164c35 0 45-28 45-65 0-40-10-65-43-65-34 0-45 26-45 65 0 36 10 65 43 65" id="E"/><path d="M135-194c87-1 58 113 63 194h-50c-7-57 23-157-34-157-59 0-34 97-39 157H25l-1-190h47c2 12-1 28 3 38 12-26 28-41 61-42" id="F"/><g id="b"><use transform="matrix(0.05,0,0,0.05,0,0)" xlink:href="#z"/><use transform="matrix(0.05,0,0,0.05,7,0)" xlink:href="#y"/><use transform="matrix(0.05,0,0,0.05,17,0)" xlink:href="#A"/><use transform="matrix(0.05,0,0,0.05,27,0)" xlink:href="#y"/><use transform="matrix(0.05,0,0,0.05,37,0)" xlink:href="#z"/><use transform="matrix(0.05,0,0,0.05,44,0)" xlink:href="#B"/><use transform="matrix(0.05,0,0,0.05,54,0)" xlink:href="#C"/><use transform="matrix(0.05,0,0,0.05,64,0)" xlink:href="#D"/><use transform="matrix(0.05,0,0,0.05,69.95,0)" xlink:href="#w"/><use transform="matrix(0.05,0,0,0.05,74.95,0)" xlink:href="#E"/><use transform="matrix(0.05,0,0,0.05,85.9,0)" xlink:href="#F"/></g><path d="M123 10C108 53 80 86 19 72V37c35 8 53-11 59-39L3-190h52l48 148c12-52 28-100 44-148h51" id="G"/><g id="c"><use transform="matrix(0.05,0,0,0.05,0,0)" xlink:href="#A"/><use transform="matrix(0.05,0,0,0.05,10,0)" xlink:href="#G"/><use transform="matrix(0.05,0,0,0.05,20,0)" xlink:href="#A"/><use transform="matrix(0.05,0,0,0.05,30,0)" xlink:href="#D"/><use transform="matrix(0.05,0,0,0.05,35.95,0)" xlink:href="#y"/><use transform="matrix(0.05,0,0,0.05,45.95,0)" xlink:href="#x"/></g><path d="M127-220V0H93v-220H8v-28h204v28h-85" id="H"/><path d="M24-231v-30h32v30H24zM24 0v-190h32V0H24" id="I"/><path d="M210-169c-67 3-38 105-44 169h-31v-121c0-29-5-50-35-48C34-165 62-65 56 0H25l-1-190h30c1 10-1 24 2 32 10-44 99-50 107 0 11-21 27-35 58-36 85-2 47 119 55 194h-31v-121c0-29-5-49-35-48" id="J"/><path d="M100-194c63 0 86 42 84 106H49c0 40 14 67 53 68 26 1 43-12 49-29l28 8c-11 28-37 45-77 45C44 4 14-33 15-96c1-61 26-98 85-98zm52 81c6-60-76-77-97-28-3 7-6 17-6 28h103" id="K"/><g id="d"><use transform="matrix(0.05,0,0,0.05,0,0)" xlink:href="#H"/><use transform="matrix(0.05,0,0,0.05,10.3,0)" xlink:href="#I"/><use transform="matrix(0.05,0,0,0.05,14.25,0)" xlink:href="#J"/><use transform="matrix(0.05,0,0,0.05,29.200000000000003,0)" xlink:href="#K"/></g><path d="M114-163C36-179 61-72 57 0H25l-1-190h30c1 12-1 29 2 39 6-27 23-49 58-41v29" id="L"/><path d="M135-143c-3-34-86-38-87 0 15 53 115 12 119 90S17 21 10-45l28-5c4 36 97 45 98 0-10-56-113-15-118-90-4-57 82-63 122-42 12 7 21 19 24 35" id="M"/><path d="M108 0H70L1-190h34L89-25l56-165h34" id="N"/><path d="M141-36C126-15 110 5 73 4 37 3 15-17 15-53c-1-64 63-63 125-63 3-35-9-54-41-54-24 1-41 7-42 31l-33-3c5-37 33-52 76-52 45 0 72 20 72 64v82c-1 20 7 32 28 27v20c-31 9-61-2-59-35zM48-53c0 20 12 33 32 33 41-3 63-29 60-74-43 2-92-5-92 41" id="O"/><path d="M59-47c-2 24 18 29 38 22v24C64 9 27 4 27-40v-127H5v-23h24l9-43h21v43h35v23H59v120" id="P"/><path d="M100-194c62-1 85 37 85 99 1 63-27 99-86 99S16-35 15-95c0-66 28-99 85-99zM99-20c44 1 53-31 53-75 0-43-8-75-51-75s-53 32-53 75 10 74 51 75" id="Q"/><path d="M117-194c89-4 53 116 60 194h-32v-121c0-31-8-49-39-48C34-167 62-67 57 0H25l-1-190h30c1 10-1 24 2 32 11-22 29-35 61-36" id="R"/><g id="e"><use transform="matrix(0.05,0,0,0.05,0,0)" xlink:href="#L"/><use transform="matrix(0.05,0,0,0.05,5.95,0)" xlink:href="#K"/><use transform="matrix(0.05,0,0,0.05,15.949999999999998,0)" xlink:href="#M"/><use transform="matrix(0.05,0,0,0.05,24.95,0)" xlink:href="#K"/><use transform="matrix(0.05,0,0,0.05,34.95,0)" xlink:href="#L"/><use transform="matrix(0.05,0,0,0.05,40.900000000000006,0)" xlink:href="#N"/><use transform="matrix(0.05,0,0,0.05,49.900000000000006,0)" xlink:href="#O"/><use transform="matrix(0.05,0,0,0.05,59.900000000000006,0)" xlink:href="#P"/><use transform="matrix(0.05,0,0,0.05,64.9,0)" xlink:href="#I"/><use transform="matrix(0.05,0,0,0.05,68.85000000000001,0)" xlink:href="#Q"/><use transform="matrix(0.05,0,0,0.05,78.85000000000001,0)" xlink:href="#R"/></g><path d="M179-190L93 31C79 59 56 82 12 73V49c39 6 53-20 64-50L1-190h34L92-34l54-156h33" id="S"/><g id="f"><use transform="matrix(0.05,0,0,0.05,0,0)" xlink:href="#M"/><use transform="matrix(0.05,0,0,0.05,9,0)" xlink:href="#S"/><use transform="matrix(0.05,0,0,0.05,18,0)" xlink:href="#M"/><use transform="matrix(0.05,0,0,0.05,27,0)" xlink:href="#P"/><use transform="matrix(0.05,0,0,0.05,32,0)" xlink:href="#K"/><use transform="matrix(0.05,0,0,0.05,42,0)" xlink:href="#J"/></g><path d="M232-93c-1 65-40 97-104 97C67 4 28-28 28-90v-158h33c8 89-33 224 67 224 102 0 64-133 71-224h33v155" id="T"/><g id="g"><use transform="matrix(0.05,0,0,0.05,0,0)" xlink:href="#T"/><use transform="matrix(0.05,0,0,0.05,12.950000000000001,0)" xlink:href="#M"/><use transform="matrix(0.05,0,0,0.05,21.950000000000003,0)" xlink:href="#K"/><use transform="matrix(0.05,0,0,0.05,31.950000000000003,0)" xlink:href="#L"/></g><path d="M185-189c-5-48-123-54-124 2 14 75 158 14 163 119 3 78-121 87-175 55-17-10-28-26-33-46l33-7c5 56 141 63 141-1 0-78-155-14-162-118-5-82 145-84 179-34 5 7 8 16 11 25" id="U"/><g id="h"><use transform="matrix(0.05,0,0,0.05,0,0)" xlink:href="#U"/><use transform="matrix(0.05,0,0,0.05,12,0)" xlink:href="#S"/><use transform="matrix(0.05,0,0,0.05,21,0)" xlink:href="#M"/><use transform="matrix(0.05,0,0,0.05,30,0)" xlink:href="#P"/><use transform="matrix(0.05,0,0,0.05,35,0)" xlink:href="#K"/><use transform="matrix(0.05,0,0,0.05,45,0)" xlink:href="#J"/></g><path d="M205 0l-28-72H64L36 0H1l101-248h38L239 0h-34zm-38-99l-47-123c-12 45-31 82-46 123h93" id="V"/><path d="M85-194c31 0 48 13 60 33l-1-100h32l1 261h-30c-2-10 0-23-3-31C134-8 116 4 85 4 32 4 16-35 15-94c0-66 23-100 70-100zm9 24c-40 0-46 34-46 75 0 40 6 74 45 74 42 0 51-32 51-76 0-42-9-74-50-73" id="W"/><g id="i"><use transform="matrix(0.05,0,0,0.05,0,0)" xlink:href="#V"/><use transform="matrix(0.05,0,0,0.05,12,0)" xlink:href="#W"/><use transform="matrix(0.05,0,0,0.05,22,0)" xlink:href="#J"/><use transform="matrix(0.05,0,0,0.05,36.95,0)" xlink:href="#I"/><use transform="matrix(0.05,0,0,0.05,40.900000000000006,0)" xlink:href="#R"/><use transform="matrix(0.05,0,0,0.05,50.900000000000006,0)" xlink:href="#I"/><use transform="matrix(0.05,0,0,0.05,54.85,0)" xlink:href="#M"/><use transform="matrix(0.05,0,0,0.05,63.85,0)" xlink:href="#P"/><use transform="matrix(0.05,0,0,0.05,68.85000000000001,0)" xlink:href="#L"/><use transform="matrix(0.05,0,0,0.05,74.80000000000001,0)" xlink:href="#O"/><use transform="matrix(0.05,0,0,0.05,84.80000000000001,0)" xlink:href="#P"/><use transform="matrix(0.05,0,0,0.05,89.80000000000001,0)" xlink:href="#Q"/><use transform="matrix(0.05,0,0,0.05,99.80000000000001,0)" xlink:href="#L"/></g><path d="M96-169c-40 0-48 33-48 73s9 75 48 75c24 0 41-14 43-38l32 2c-6 37-31 61-74 61-59 0-76-41-82-99-10-93 101-131 147-64 4 7 5 14 7 22l-32 3c-4-21-16-35-41-35" id="X"/><g id="j"><use transform="matrix(0.05,0,0,0.05,0,0)" xlink:href="#V"/><use transform="matrix(0.05,0,0,0.05,12,0)" xlink:href="#M"/><use transform="matrix(0.05,0,0,0.05,21,0)" xlink:href="#M"/><use transform="matrix(0.05,0,0,0.05,30,0)" xlink:href="#Q"/><use transform="matrix(0.05,0,0,0.05,40,0)" xlink:href="#X"/><use transform="matrix(0.05,0,0,0.05,49,0)" xlink:href="#I"/><use transform="matrix(0.05,0,0,0.05,52.95,0)" xlink:href="#O"/><use transform="matrix(0.05,0,0,0.05,62.95,0)" xlink:href="#P"/><use transform="matrix(0.05,0,0,0.05,67.95,0)" xlink:href="#I"/><use transform="matrix(0.05,0,0,0.05,71.9,0)" xlink:href="#Q"/><use transform="matrix(0.05,0,0,0.05,81.9,0)" xlink:href="#R"/></g><path d="M101-234c-31-9-42 10-38 44h38v23H63V0H32v-167H5v-23h27c-7-52 17-82 69-68v24" id="Y"/><g id="k"><use transform="matrix(0.05,0,0,0.05,0,0)" xlink:href="#I"/><use transform="matrix(0.05,0,0,0.05,3.95,0)" xlink:href="#R"/><use transform="matrix(0.05,0,0,0.05,13.949999999999998,0)" xlink:href="#Y"/><use transform="matrix(0.05,0,0,0.05,18.95,0)" xlink:href="#Q"/><use transform="matrix(0.05,0,0,0.05,28.950000000000003,0)" xlink:href="#L"/><use transform="matrix(0.05,0,0,0.05,34.9,0)" xlink:href="#J"/><use transform="matrix(0.05,0,0,0.05,49.85,0)" xlink:href="#O"/><use transform="matrix(0.05,0,0,0.05,59.85,0)" xlink:href="#P"/><use transform="matrix(0.05,0,0,0.05,64.85,0)" xlink:href="#I"/><use transform="matrix(0.05,0,0,0.05,68.8,0)" xlink:href="#Q"/><use transform="matrix(0.05,0,0,0.05,78.8,0)" xlink:href="#R"/></g><path d="M63-220v92h138v28H63V0H30v-248h175v28H63" id="Z"/><path d="M24 0v-261h32V0H24" id="aa"/><path d="M47-170H22l-4-78h33" id="ab"/><g id="l"><use transform="matrix(0.05,0,0,0.05,0,0)" xlink:href="#Z"/><use transform="matrix(0.05,0,0,0.05,10.950000000000001,0)" xlink:href="#O"/><use transform="matrix(0.05,0,0,0.05,20.950000000000003,0)" xlink:href="#J"/><use transform="matrix(0.05,0,0,0.05,35.900000000000006,0)" xlink:href="#I"/><use transform="matrix(0.05,0,0,0.05,39.85000000000001,0)" xlink:href="#aa"/><use transform="matrix(0.05,0,0,0.05,43.80000000000001,0)" xlink:href="#S"/><use transform="matrix(0.05,0,0,0.05,52.80000000000001,0)" xlink:href="#ab"/><use transform="matrix(0.05,0,0,0.05,56.20000000000002,0)" xlink:href="#M"/></g><g id="m"><use transform="matrix(0.05,0,0,0.05,0,0)" xlink:href="#N"/><use transform="matrix(0.05,0,0,0.05,9,0)" xlink:href="#O"/><use transform="matrix(0.05,0,0,0.05,19,0)" xlink:href="#aa"/><use transform="matrix(0.05,0,0,0.05,22.95,0)" xlink:href="#I"/><use transform="matrix(0.05,0,0,0.05,26.899999999999995,0)" xlink:href="#W"/></g><g id="n"><use transform="matrix(0.05,0,0,0.05,0,0)" xlink:href="#P"/><use transform="matrix(0.05,0,0,0.05,5,0)" xlink:href="#I"/><use transform="matrix(0.05,0,0,0.05,8.95,0)" xlink:href="#J"/><use transform="matrix(0.05,0,0,0.05,23.9,0)" xlink:href="#K"/></g><g id="o"><use transform="matrix(0.05,0,0,0.05,0,0)" xlink:href="#L"/><use transform="matrix(0.05,0,0,0.05,5.95,0)" xlink:href="#K"/><use transform="matrix(0.05,0,0,0.05,15.949999999999998,0)" xlink:href="#M"/><use transform="matrix(0.05,0,0,0.05,24.95,0)" xlink:href="#K"/><use transform="matrix(0.05,0,0,0.05,34.95,0)" xlink:href="#L"/><use transform="matrix(0.05,0,0,0.05,40.900000000000006,0)" xlink:href="#N"/><use transform="matrix(0.05,0,0,0.05,49.900000000000006,0)" xlink:href="#O"/><use transform="matrix(0.05,0,0,0.05,59.900000000000006,0)" xlink:href="#P"/><use transform="matrix(0.05,0,0,0.05,64.9,0)" xlink:href="#I"/><use transform="matrix(0.05,0,0,0.05,68.85000000000001,0)" xlink:href="#Q"/><use transform="matrix(0.05,0,0,0.05,78.85000000000001,0)" xlink:href="#R"/></g><path d="M30 0v-248h33v221h125V0H30" id="ac"/><path d="M177-190C167-65 218 103 67 71c-23-6-38-20-44-43l32-5c15 47 100 32 89-28v-30C133-14 115 1 83 1 29 1 15-40 15-95c0-56 16-97 71-98 29-1 48 16 59 35 1-10 0-23 2-32h30zM94-22c36 0 50-32 50-73 0-42-14-75-50-75-39 0-46 34-46 75s6 73 46 73" id="ad"/><g id="p"><use transform="matrix(0.05,0,0,0.05,0,0)" xlink:href="#ac"/><use transform="matrix(0.05,0,0,0.05,10,0)" xlink:href="#Q"/><use transform="matrix(0.05,0,0,0.05,20,0)" xlink:href="#ad"/><use transform="matrix(0.05,0,0,0.05,30,0)" xlink:href="#I"/><use transform="matrix(0.05,0,0,0.05,33.95,0)" xlink:href="#R"/></g><g id="q"><use transform="matrix(0.05,0,0,0.05,0,0)" xlink:href="#W"/><use transform="matrix(0.05,0,0,0.05,10,0)" xlink:href="#K"/><use transform="matrix(0.05,0,0,0.05,20,0)" xlink:href="#P"/><use transform="matrix(0.05,0,0,0.05,25,0)" xlink:href="#O"/><use transform="matrix(0.05,0,0,0.05,35,0)" xlink:href="#I"/><use transform="matrix(0.05,0,0,0.05,38.95,0)" xlink:href="#aa"/><use transform="matrix(0.05,0,0,0.05,42.900000000000006,0)" xlink:href="#M"/></g><path d="M106-169C34-169 62-67 57 0H25v-261h32l-1 103c12-21 28-36 61-36 89 0 53 116 60 194h-32v-121c2-32-8-49-39-48" id="ae"/><g id="r"><use transform="matrix(0.05,0,0,0.05,0,0)" xlink:href="#H"/><use transform="matrix(0.05,0,0,0.05,8.950000000000001,0)" xlink:href="#K"/><use transform="matrix(0.05,0,0,0.05,18.950000000000003,0)" xlink:href="#O"/><use transform="matrix(0.05,0,0,0.05,28.950000000000003,0)" xlink:href="#X"/><use transform="matrix(0.05,0,0,0.05,37.95,0)" xlink:href="#ae"/><use transform="matrix(0.05,0,0,0.05,47.95,0)" xlink:href="#K"/><use transform="matrix(0.05,0,0,0.05,57.95,0)" xlink:href="#L"/></g><path d="M115-194c53 0 69 39 70 98 0 66-23 100-70 100C84 3 66-7 56-30L54 0H23l1-261h32v101c10-23 28-34 59-34zm-8 174c40 0 45-34 45-75 0-40-5-75-45-74-42 0-51 32-51 76 0 43 10 73 51 73" id="af"/><g id="s"><use transform="matrix(0.05,0,0,0.05,0,0)" xlink:href="#O"/><use transform="matrix(0.05,0,0,0.05,10,0)" xlink:href="#N"/><use transform="matrix(0.05,0,0,0.05,19,0)" xlink:href="#O"/><use transform="matrix(0.05,0,0,0.05,29,0)" xlink:href="#I"/><use transform="matrix(0.05,0,0,0.05,32.95,0)" xlink:href="#aa"/><use transform="matrix(0.05,0,0,0.05,36.900000000000006,0)" xlink:href="#O"/><use transform="matrix(0.05,0,0,0.05,46.900000000000006,0)" xlink:href="#af"/><use transform="matrix(0.05,0,0,0.05,56.900000000000006,0)" xlink:href="#I"/><use transform="matrix(0.05,0,0,0.05,60.85,0)" xlink:href="#aa"/><use transform="matrix(0.05,0,0,0.05,64.80000000000001,0)" xlink:href="#I"/><use transform="matrix(0.05,0,0,0.05,68.75000000000001,0)" xlink:href="#P"/><use transform="matrix(0.05,0,0,0.05,73.75000000000001,0)" xlink:href="#S"/></g><g id="t"><use transform="matrix(0.05,0,0,0.05,0,0)" xlink:href="#T"/><use transform="matrix(0.05,0,0,0.05,12.950000000000001,0)" xlink:href="#M"/><use transform="matrix(0.05,0,0,0.05,21.950000000000003,0)" xlink:href="#K"/><use transform="matrix(0.05,0,0,0.05,31.950000000000003,0)" xlink:href="#L"/><use transform="matrix(0.05,0,0,0.05,37.900000000000006,0)" xlink:href="#ab"/><use transform="matrix(0.05,0,0,0.05,41.300000000000004,0)" xlink:href="#M"/></g><g id="u"><use transform="matrix(0.05,0,0,0.05,0,0)" xlink:href="#H"/><use transform="matrix(0.05,0,0,0.05,8.950000000000001,0)" xlink:href="#K"/><use transform="matrix(0.05,0,0,0.05,18.950000000000003,0)" xlink:href="#O"/><use transform="matrix(0.05,0,0,0.05,28.950000000000003,0)" xlink:href="#X"/><use transform="matrix(0.05,0,0,0.05,37.95,0)" xlink:href="#ae"/><use transform="matrix(0.05,0,0,0.05,47.95,0)" xlink:href="#K"/><use transform="matrix(0.05,0,0,0.05,57.95,0)" xlink:href="#L"/></g></defs></g></svg>