<svg xmlns="http://www.w3.org/2000/svg" xmlns:xlink="http://www.w3.org/1999/xlink" width="1200.1" height="1080"><g transform="translate(-1391.06120169749 -60)"><path d="M1900 80h400v1040h-400zM1420 400h160v80h-160z" stroke="#000" stroke-width="2" fill="#fff"/><use xlink:href="#a" transform="matrix(1,0,0,1,1425,405) translate(48.599999999999994 38.6)"/><path d="M1660 740h160v80h-160z" stroke="#000" stroke-width="2" fill="#fff"/><use xlink:href="#b" transform="matrix(1,0,0,1,1665,745) translate(45.025 27.799999999999997)"/><use xlink:href="#c" transform="matrix(1,0,0,1,1665,745) translate(22.124999999999993 49.4)"/><path d="M2380 560h160v80h-160z" stroke="#000" stroke-width="2" fill="#fff"/><use xlink:href="#d" transform="matrix(1,0,0,1,2385,565) translate(43.05 38.6)"/><path d="M1980 560h240v80h-240z" fill="#fff"/><path d="M1980 560h240m0 80h-240" stroke="#000" stroke-width="2" fill="#fff"/><use xlink:href="#e" transform="matrix(1,0,0,1,2000,560) translate(13.074999999999989 43.6)"/><use xlink:href="#f" transform="matrix(1,0,0,1,2000,560) translate(109.975 43.6)"/><path d="M2100 160v-40h-598.96v279" stroke="#000" stroke-width="2" fill="none"/><path d="M2100 160l-4.64-14.27h9.28z"/><path d="M2101.04 160.03L2100 160h-.68l-.37.02-4.96-15.3h12zm-4.3-13.3l3.26 10.03 3.26-10.03zM1502.04 400h-2v-1h2z"/><path fill="#fff" d="M1402.06 141.54H1600v21.6h-197.94z"/><use xlink:href="#g" transform="matrix(1,0,0,1,1402.06120169749,141.53962399641847) translate(0 14.4)"/><use xlink:href="#h" transform="matrix(1,0,0,1,1402.06120169749,141.53962399641847) translate(70.20000000000002 14.4)"/><use xlink:href="#i" transform="matrix(1,0,0,1,1402.06120169749,141.53962399641847) translate(109.10000000000002 14.4)"/><path d="M2180 240c0 44.18-35.82 80-80 80s-80-35.82-80-80 35.82-80 80-80 80 35.82 80 80z" stroke="#000" stroke-width="2" fill="none"/><use xlink:href="#j" transform="matrix(1,0,0,1,2040,160) translate(40.4 72.8)"/><use xlink:href="#i" transform="matrix(1,0,0,1,2040,160) translate(15.574999999999996 94.4)"/><path d="M2100 321v239" stroke="#000" stroke-width="2" fill="none"/><path d="M2104.64 335.27h-9.28L2100 321z"/><path d="M2100 320H2100.73l5.28 16.27h-12l5.28-16.3zm-3.26 14.27h6.52l-3.26-10.03z"/><path fill="#fff" d="M2007.15 429.7h185.7v21.6h-185.7z"/><use xlink:href="#e" transform="matrix(1,0,0,1,2007.15,429.7000044196616) translate(0 14.4)"/><use xlink:href="#k" transform="matrix(1,0,0,1,2007.15,429.7000044196616) translate(96.9 14.4)"/><path d="M2460.24 559V240H2180" stroke="#000" stroke-width="2" fill="none"/><path d="M2460.24 559l-4.64-14.27h9.27z"/><path d="M2460.96 560h-1.45l-5.27-16.27h12.02zm-3.98-14.27l3.26 10.03 3.26-10.03zM2180 241h-.03l.03-1v-.68l-.02-.32h.02z"/><path fill="#fff" d="M2340.3 389.6h239.87v21.6H2340.3z"/><use xlink:href="#g" transform="matrix(1,0,0,1,2340.3118254609917,389.5979103515986) translate(0 14.4)"/><use xlink:href="#l" transform="matrix(1,0,0,1,2340.3118254609917,389.5979103515986) translate(70.20000000000002 14.4)"/><use xlink:href="#h" transform="matrix(1,0,0,1,2340.3118254609917,389.5979103515986) translate(112.10000000000002 14.4)"/><use xlink:href="#i" transform="matrix(1,0,0,1,2340.3118254609917,389.5979103515986) translate(151.00000000000003 14.4)"/><path d="M2180 960c0 44.18-35.82 80-80 80s-80-35.82-80-80 35.82-80 80-80 80 35.82 80 80z" stroke="#000" stroke-width="2" fill="none"/><use xlink:href="#m" transform="matrix(1,0,0,1,2040,880) translate(19.599999999999994 72.8)"/><use xlink:href="#n" transform="matrix(1,0,0,1,2040,880) translate(62.5 72.8)"/><use xlink:href="#o" transform="matrix(1,0,0,1,2040,880) translate(28.525 94.4)"/><path d="M1500 480v600h600v-40" stroke="#000" stroke-width="2" fill="none"/><path d="M2104.64 1054.27h-9.28L2100 1040z"/><path d="M2100 1040h.68l.37-.02 4.96 15.3h-12l4.96-15.3zm-3.26 13.27h6.52l-3.26-10.03z"/><path fill="#fff" d="M1420.67 714.63h158.66v21.6h-158.66z"/><use xlink:href="#p" transform="matrix(1,0,0,1,1420.675,714.6264342587734) translate(0 14.4)"/><use xlink:href="#q" transform="matrix(1,0,0,1,1420.675,714.6264342587734) translate(57.80000000000001 14.4)"/><use xlink:href="#r" transform="matrix(1,0,0,1,1420.675,714.6264342587734) translate(106.75000000000001 14.4)"/><path d="M1739.2 739V600H1980" stroke="#000" stroke-width="2" fill="none"/><path d="M1740.2 740h-2v-1h2zM1980 600l-14.27 4.64v-9.28z"/><path d="M1980 598.95v2.1l-15.27 4.96v-12zm-13.27 4.3l10.03-3.25-10.03-3.26z"/><path fill="#fff" d="M1646.35 658.65h185.7v21.6h-185.7z"/><use xlink:href="#e" transform="matrix(1,0,0,1,1646.3504318514333,658.6483580481753) translate(0 14.4)"/><use xlink:href="#k" transform="matrix(1,0,0,1,1646.3504318514333,658.6483580481753) translate(96.9 14.4)"/><path d="M2100 640v239" stroke="#000" stroke-width="2" fill="none"/><path d="M2100 879l-4.64-14.27h9.28z"/><path d="M2100.72 880.02l-.72-.02H2099.27l-5.28-16.27h12zm-3.98-14.3l3.26 10.04 3.26-10.03z"/><path fill="#fff" d="M2031.15 748.7h137.7v21.6h-137.7z"/><use xlink:href="#m" transform="matrix(1,0,0,1,2031.15,748.699995429407) translate(0 14.4)"/><use xlink:href="#s" transform="matrix(1,0,0,1,2031.15,748.699995429407) translate(42.900000000000006 14.4)"/><use xlink:href="#r" transform="matrix(1,0,0,1,2031.15,748.699995429407) translate(85.80000000000001 14.4)"/><path d="M1740.48 821v139H2020" stroke="#000" stroke-width="2" fill="none"/><path d="M1741.48 821h-2v-1h2zM2020 960l-14.27 4.64v-9.28z"/><path d="M2020.03 958.96L2020 960v.68l.02.37-15.3 4.96v-12zm-13.3 4.3l10.03-3.26-10.03-3.26z"/><path fill="#fff" d="M1602.2 878.97h276.57v21.6H1602.2z"/><g><use xlink:href="#t" transform="matrix(1,0,0,1,1602.2067320030255,878.9731341146634) translate(0 14.4)"/><use xlink:href="#u" transform="matrix(1,0,0,1,1602.2067320030255,878.9731341146634) translate(64.95 14.4)"/><use xlink:href="#q" transform="matrix(1,0,0,1,1602.2067320030255,878.9731341146634) translate(175.70000000000002 14.4)"/><use xlink:href="#r" transform="matrix(1,0,0,1,1602.2067320030255,878.9731341146634) translate(224.65000000000003 14.4)"/></g><path d="M2460 640v320h-280" stroke="#000" stroke-width="2" fill="none"/><path d="M2194.27 964.64L2180 960l14.27-4.64z"/><path d="M2195.27 966l-15.3-4.96.03-1.04v-.68l-.02-.37 15.3-4.96zm-12.03-6l10.03 3.26v-6.52z"/><path fill="#fff" d="M2375.13 788.77h169.76v21.6h-169.77z"/><g><use xlink:href="#v" transform="matrix(1,0,0,1,2375.125,788.7748559541574) translate(0 14.4)"/><use xlink:href="#q" transform="matrix(1,0,0,1,2375.125,788.7748559541574) translate(68.9 14.4)"/><use xlink:href="#r" transform="matrix(1,0,0,1,2375.125,788.7748559541574) translate(117.85000000000001 14.4)"/></g><path d="M1580 440h220V240h220" stroke="#000" stroke-width="2" fill="none"/><path d="M1594.27 444.64L1580 440l14.27-4.64z"/><path d="M1595.27 446l-15.27-4.95v-2.1l15.27-4.96zm-12.03-6l10.03 3.26v-6.52zM2020 240v.68l.02.32h-.02v-2h.03z"/><path fill="#fff" d="M1704.72 329.2h190.55v21.6h-190.55z"/><g><use xlink:href="#v" transform="matrix(1,0,0,1,1704.725,329.2) translate(0 14.4)"/><use xlink:href="#h" transform="matrix(1,0,0,1,1704.725,329.2) translate(68.9 14.4)"/><use xlink:href="#w" transform="matrix(1,0,0,1,1704.725,329.2) translate(107.80000000000001 14.4)"/></g><defs><path d="M63-220v92h138v28H63V0H30v-248h175v28H63" id="x"/><path d="M141-36C126-15 110 5 73 4 37 3 15-17 15-53c-1-64 63-63 125-63 3-35-9-54-41-54-24 1-41 7-42 31l-33-3c5-37 33-52 76-52 45 0 72 20 72 64v82c-1 20 7 32 28 27v20c-31 9-61-2-59-35zM48-53c0 20 12 33 32 33 41-3 63-29 60-74-43 2-92-5-92 41" id="y"/><path d="M210-169c-67 3-38 105-44 169h-31v-121c0-29-5-50-35-48C34-165 62-65 56 0H25l-1-190h30c1 10-1 24 2 32 10-44 99-50 107 0 11-21 27-35 58-36 85-2 47 119 55 194h-31v-121c0-29-5-49-35-48" id="z"/><path d="M24-231v-30h32v30H24zM24 0v-190h32V0H24" id="A"/><path d="M24 0v-261h32V0H24" id="B"/><path d="M179-190L93 31C79 59 56 82 12 73V49c39 6 53-20 64-50L1-190h34L92-34l54-156h33" id="C"/><g id="a"><use transform="matrix(0.05,0,0,0.05,0,0)" xlink:href="#x"/><use transform="matrix(0.05,0,0,0.05,10.950000000000001,0)" xlink:href="#y"/><use transform="matrix(0.05,0,0,0.05,20.950000000000003,0)" xlink:href="#z"/><use transform="matrix(0.05,0,0,0.05,35.900000000000006,0)" xlink:href="#A"/><use transform="matrix(0.05,0,0,0.05,39.85000000000001,0)" xlink:href="#B"/><use transform="matrix(0.05,0,0,0.05,43.80000000000001,0)" xlink:href="#C"/></g><path d="M185-189c-5-48-123-54-124 2 14 75 158 14 163 119 3 78-121 87-175 55-17-10-28-26-33-46l33-7c5 56 141 63 141-1 0-78-155-14-162-118-5-82 145-84 179-34 5 7 8 16 11 25" id="D"/><path d="M135-143c-3-34-86-38-87 0 15 53 115 12 119 90S17 21 10-45l28-5c4 36 97 45 98 0-10-56-113-15-118-90-4-57 82-63 122-42 12 7 21 19 24 35" id="E"/><path d="M59-47c-2 24 18 29 38 22v24C64 9 27 4 27-40v-127H5v-23h24l9-43h21v43h35v23H59v120" id="F"/><path d="M100-194c63 0 86 42 84 106H49c0 40 14 67 53 68 26 1 43-12 49-29l28 8c-11 28-37 45-77 45C44 4 14-33 15-96c1-61 26-98 85-98zm52 81c6-60-76-77-97-28-3 7-6 17-6 28h103" id="G"/><g id="b"><use transform="matrix(0.05,0,0,0.05,0,0)" xlink:href="#D"/><use transform="matrix(0.05,0,0,0.05,12,0)" xlink:href="#C"/><use transform="matrix(0.05,0,0,0.05,21,0)" xlink:href="#E"/><use transform="matrix(0.05,0,0,0.05,30,0)" xlink:href="#F"/><use transform="matrix(0.05,0,0,0.05,35,0)" xlink:href="#G"/><use transform="matrix(0.05,0,0,0.05,45,0)" xlink:href="#z"/></g><path d="M205 0l-28-72H64L36 0H1l101-248h38L239 0h-34zm-38-99l-47-123c-12 45-31 82-46 123h93" id="H"/><path d="M85-194c31 0 48 13 60 33l-1-100h32l1 261h-30c-2-10 0-23-3-31C134-8 116 4 85 4 32 4 16-35 15-94c0-66 23-100 70-100zm9 24c-40 0-46 34-46 75 0 40 6 74 45 74 42 0 51-32 51-76 0-42-9-74-50-73" id="I"/><path d="M117-194c89-4 53 116 60 194h-32v-121c0-31-8-49-39-48C34-167 62-67 57 0H25l-1-190h30c1 10-1 24 2 32 11-22 29-35 61-36" id="J"/><path d="M114-163C36-179 61-72 57 0H25l-1-190h30c1 12-1 29 2 39 6-27 23-49 58-41v29" id="K"/><path d="M100-194c62-1 85 37 85 99 1 63-27 99-86 99S16-35 15-95c0-66 28-99 85-99zM99-20c44 1 53-31 53-75 0-43-8-75-51-75s-53 32-53 75 10 74 51 75" id="L"/><g id="c"><use transform="matrix(0.05,0,0,0.05,0,0)" xlink:href="#H"/><use transform="matrix(0.05,0,0,0.05,12,0)" xlink:href="#I"/><use transform="matrix(0.05,0,0,0.05,22,0)" xlink:href="#z"/><use transform="matrix(0.05,0,0,0.05,36.95,0)" xlink:href="#A"/><use transform="matrix(0.05,0,0,0.05,40.900000000000006,0)" xlink:href="#J"/><use transform="matrix(0.05,0,0,0.05,50.900000000000006,0)" xlink:href="#A"/><use transform="matrix(0.05,0,0,0.05,54.85,0)" xlink:href="#E"/><use transform="matrix(0.05,0,0,0.05,63.85,0)" xlink:href="#F"/><use transform="matrix(0.05,0,0,0.05,68.85000000000001,0)" xlink:href="#K"/><use transform="matrix(0.05,0,0,0.05,74.80000000000001,0)" xlink:href="#y"/><use transform="matrix(0.05,0,0,0.05,84.80000000000001,0)" xlink:href="#F"/><use transform="matrix(0.05,0,0,0.05,89.80000000000001,0)" xlink:href="#L"/><use transform="matrix(0.05,0,0,0.05,99.80000000000001,0)" xlink:href="#K"/></g><path d="M127-220V0H93v-220H8v-28h204v28h-85" id="M"/><path d="M96-169c-40 0-48 33-48 73s9 75 48 75c24 0 41-14 43-38l32 2c-6 37-31 61-74 61-59 0-76-41-82-99-10-93 101-131 147-64 4 7 5 14 7 22l-32 3c-4-21-16-35-41-35" id="N"/><path d="M106-169C34-169 62-67 57 0H25v-261h32l-1 103c12-21 28-36 61-36 89 0 53 116 60 194h-32v-121c2-32-8-49-39-48" id="O"/><g id="d"><use transform="matrix(0.05,0,0,0.05,0,0)" xlink:href="#M"/><use transform="matrix(0.05,0,0,0.05,8.950000000000001,0)" xlink:href="#G"/><use transform="matrix(0.05,0,0,0.05,18.950000000000003,0)" xlink:href="#y"/><use transform="matrix(0.05,0,0,0.05,28.950000000000003,0)" xlink:href="#N"/><use transform="matrix(0.05,0,0,0.05,37.95,0)" xlink:href="#O"/><use transform="matrix(0.05,0,0,0.05,47.95,0)" xlink:href="#G"/><use transform="matrix(0.05,0,0,0.05,57.95,0)" xlink:href="#K"/></g><g id="e"><use transform="matrix(0.05,0,0,0.05,0,0)" xlink:href="#H"/><use transform="matrix(0.05,0,0,0.05,12,0)" xlink:href="#E"/><use transform="matrix(0.05,0,0,0.05,21,0)" xlink:href="#E"/><use transform="matrix(0.05,0,0,0.05,30,0)" xlink:href="#L"/><use transform="matrix(0.05,0,0,0.05,40,0)" xlink:href="#N"/><use transform="matrix(0.05,0,0,0.05,49,0)" xlink:href="#A"/><use transform="matrix(0.05,0,0,0.05,52.95,0)" xlink:href="#y"/><use transform="matrix(0.05,0,0,0.05,62.95,0)" xlink:href="#F"/><use transform="matrix(0.05,0,0,0.05,67.95,0)" xlink:href="#A"/><use transform="matrix(0.05,0,0,0.05,71.9,0)" xlink:href="#L"/><use transform="matrix(0.05,0,0,0.05,81.9,0)" xlink:href="#J"/></g><path d="M30-248c118-7 216 8 213 122C240-48 200 0 122 0H30v-248zM63-27c89 8 146-16 146-99s-60-101-146-95v194" id="P"/><path d="M115-194c53 0 69 39 70 98 0 66-23 100-70 100C84 3 66-7 56-30L54 0H23l1-261h32v101c10-23 28-34 59-34zm-8 174c40 0 45-34 45-75 0-40-5-75-45-74-42 0-51 32-51 76 0 43 10 73 51 73" id="Q"/><g id="f"><use transform="matrix(0.05,0,0,0.05,0,0)" xlink:href="#P"/><use transform="matrix(0.05,0,0,0.05,12.950000000000001,0)" xlink:href="#y"/><use transform="matrix(0.05,0,0,0.05,22.950000000000003,0)" xlink:href="#F"/><use transform="matrix(0.05,0,0,0.05,27.950000000000003,0)" xlink:href="#y"/><use transform="matrix(0.05,0,0,0.05,37.95,0)" xlink:href="#Q"/><use transform="matrix(0.05,0,0,0.05,47.95,0)" xlink:href="#y"/><use transform="matrix(0.05,0,0,0.05,57.95,0)" xlink:href="#E"/><use transform="matrix(0.05,0,0,0.05,66.95,0)" xlink:href="#G"/></g><path d="M47-170H22l-4-78h33" id="R"/><g id="g"><use transform="matrix(0.05,0,0,0.05,0,0)" xlink:href="#x"/><use transform="matrix(0.05,0,0,0.05,10.950000000000001,0)" xlink:href="#y"/><use transform="matrix(0.05,0,0,0.05,20.950000000000003,0)" xlink:href="#z"/><use transform="matrix(0.05,0,0,0.05,35.900000000000006,0)" xlink:href="#A"/><use transform="matrix(0.05,0,0,0.05,39.85000000000001,0)" xlink:href="#B"/><use transform="matrix(0.05,0,0,0.05,43.80000000000001,0)" xlink:href="#C"/><use transform="matrix(0.05,0,0,0.05,52.80000000000001,0)" xlink:href="#R"/><use transform="matrix(0.05,0,0,0.05,56.20000000000002,0)" xlink:href="#E"/></g><g id="h"><use transform="matrix(0.05,0,0,0.05,0,0)" xlink:href="#F"/><use transform="matrix(0.05,0,0,0.05,5,0)" xlink:href="#A"/><use transform="matrix(0.05,0,0,0.05,8.95,0)" xlink:href="#z"/><use transform="matrix(0.05,0,0,0.05,23.9,0)" xlink:href="#G"/></g><path d="M108 0H70L1-190h34L89-25l56-165h34" id="S"/><g id="i"><use transform="matrix(0.05,0,0,0.05,0,0)" xlink:href="#K"/><use transform="matrix(0.05,0,0,0.05,5.95,0)" xlink:href="#G"/><use transform="matrix(0.05,0,0,0.05,15.949999999999998,0)" xlink:href="#E"/><use transform="matrix(0.05,0,0,0.05,24.95,0)" xlink:href="#G"/><use transform="matrix(0.05,0,0,0.05,34.95,0)" xlink:href="#K"/><use transform="matrix(0.05,0,0,0.05,40.900000000000006,0)" xlink:href="#S"/><use transform="matrix(0.05,0,0,0.05,49.900000000000006,0)" xlink:href="#y"/><use transform="matrix(0.05,0,0,0.05,59.900000000000006,0)" xlink:href="#F"/><use transform="matrix(0.05,0,0,0.05,64.9,0)" xlink:href="#A"/><use transform="matrix(0.05,0,0,0.05,68.85000000000001,0)" xlink:href="#L"/><use transform="matrix(0.05,0,0,0.05,78.85000000000001,0)" xlink:href="#J"/></g><g id="j"><use transform="matrix(0.05,0,0,0.05,0,0)" xlink:href="#M"/><use transform="matrix(0.05,0,0,0.05,10.3,0)" xlink:href="#A"/><use transform="matrix(0.05,0,0,0.05,14.25,0)" xlink:href="#z"/><use transform="matrix(0.05,0,0,0.05,29.200000000000003,0)" xlink:href="#G"/></g><path d="M101-234c-31-9-42 10-38 44h38v23H63V0H32v-167H5v-23h27c-7-52 17-82 69-68v24" id="T"/><g id="k"><use transform="matrix(0.05,0,0,0.05,0,0)" xlink:href="#A"/><use transform="matrix(0.05,0,0,0.05,3.95,0)" xlink:href="#J"/><use transform="matrix(0.05,0,0,0.05,13.949999999999998,0)" xlink:href="#T"/><use transform="matrix(0.05,0,0,0.05,18.95,0)" xlink:href="#L"/><use transform="matrix(0.05,0,0,0.05,28.950000000000003,0)" xlink:href="#K"/><use transform="matrix(0.05,0,0,0.05,34.9,0)" xlink:href="#z"/><use transform="matrix(0.05,0,0,0.05,49.85,0)" xlink:href="#y"/><use transform="matrix(0.05,0,0,0.05,59.85,0)" xlink:href="#F"/><use transform="matrix(0.05,0,0,0.05,64.85,0)" xlink:href="#A"/><use transform="matrix(0.05,0,0,0.05,68.8,0)" xlink:href="#L"/><use transform="matrix(0.05,0,0,0.05,78.8,0)" xlink:href="#J"/></g><g id="l"><use transform="matrix(0.05,0,0,0.05,0,0)" xlink:href="#S"/><use transform="matrix(0.05,0,0,0.05,9,0)" xlink:href="#y"/><use transform="matrix(0.05,0,0,0.05,19,0)" xlink:href="#B"/><use transform="matrix(0.05,0,0,0.05,22.95,0)" xlink:href="#A"/><use transform="matrix(0.05,0,0,0.05,26.899999999999995,0)" xlink:href="#I"/></g><path d="M232-93c-1 65-40 97-104 97C67 4 28-28 28-90v-158h33c8 89-33 224 67 224 102 0 64-133 71-224h33v155" id="U"/><g id="m"><use transform="matrix(0.05,0,0,0.05,0,0)" xlink:href="#U"/><use transform="matrix(0.05,0,0,0.05,12.950000000000001,0)" xlink:href="#E"/><use transform="matrix(0.05,0,0,0.05,21.950000000000003,0)" xlink:href="#G"/><use transform="matrix(0.05,0,0,0.05,31.950000000000003,0)" xlink:href="#K"/></g><path d="M177-190C167-65 218 103 67 71c-23-6-38-20-44-43l32-5c15 47 100 32 89-28v-30C133-14 115 1 83 1 29 1 15-40 15-95c0-56 16-97 71-98 29-1 48 16 59 35 1-10 0-23 2-32h30zM94-22c36 0 50-32 50-73 0-42-14-75-50-75-39 0-46 34-46 75s6 73 46 73" id="V"/><g id="n"><use transform="matrix(0.05,0,0,0.05,0,0)" xlink:href="#B"/><use transform="matrix(0.05,0,0,0.05,3.95,0)" xlink:href="#L"/><use transform="matrix(0.05,0,0,0.05,13.949999999999998,0)" xlink:href="#V"/><use transform="matrix(0.05,0,0,0.05,23.95,0)" xlink:href="#A"/><use transform="matrix(0.05,0,0,0.05,27.899999999999995,0)" xlink:href="#J"/></g><path d="M115-194c55 1 70 41 70 98S169 2 115 4C84 4 66-9 55-30l1 105H24l-1-265h31l2 30c10-21 28-34 59-34zm-8 174c40 0 45-34 45-75s-6-73-45-74c-42 0-51 32-51 76 0 43 10 73 51 73" id="W"/><g id="o"><use transform="matrix(0.05,0,0,0.05,0,0)" xlink:href="#W"/><use transform="matrix(0.05,0,0,0.05,10,0)" xlink:href="#K"/><use transform="matrix(0.05,0,0,0.05,15.949999999999998,0)" xlink:href="#L"/><use transform="matrix(0.05,0,0,0.05,25.950000000000003,0)" xlink:href="#N"/><use transform="matrix(0.05,0,0,0.05,34.95,0)" xlink:href="#G"/><use transform="matrix(0.05,0,0,0.05,44.95,0)" xlink:href="#E"/><use transform="matrix(0.05,0,0,0.05,53.95,0)" xlink:href="#E"/></g><g id="p"><use transform="matrix(0.05,0,0,0.05,0,0)" xlink:href="#x"/><use transform="matrix(0.05,0,0,0.05,10.950000000000001,0)" xlink:href="#y"/><use transform="matrix(0.05,0,0,0.05,20.950000000000003,0)" xlink:href="#z"/><use transform="matrix(0.05,0,0,0.05,35.900000000000006,0)" xlink:href="#A"/><use transform="matrix(0.05,0,0,0.05,39.85000000000001,0)" xlink:href="#B"/><use transform="matrix(0.05,0,0,0.05,43.80000000000001,0)" xlink:href="#C"/></g><path d="M30 0v-248h33v221h125V0H30" id="X"/><g id="q"><use transform="matrix(0.05,0,0,0.05,0,0)" xlink:href="#X"/><use transform="matrix(0.05,0,0,0.05,10,0)" xlink:href="#L"/><use transform="matrix(0.05,0,0,0.05,20,0)" xlink:href="#V"/><use transform="matrix(0.05,0,0,0.05,30,0)" xlink:href="#A"/><use transform="matrix(0.05,0,0,0.05,33.95,0)" xlink:href="#J"/></g><g id="r"><use transform="matrix(0.05,0,0,0.05,0,0)" xlink:href="#I"/><use transform="matrix(0.05,0,0,0.05,10,0)" xlink:href="#G"/><use transform="matrix(0.05,0,0,0.05,20,0)" xlink:href="#F"/><use transform="matrix(0.05,0,0,0.05,25,0)" xlink:href="#y"/><use transform="matrix(0.05,0,0,0.05,35,0)" xlink:href="#A"/><use transform="matrix(0.05,0,0,0.05,38.95,0)" xlink:href="#B"/><use transform="matrix(0.05,0,0,0.05,42.900000000000006,0)" xlink:href="#E"/></g><g id="s"><use transform="matrix(0.05,0,0,0.05,0,0)" xlink:href="#B"/><use transform="matrix(0.05,0,0,0.05,3.95,0)" xlink:href="#L"/><use transform="matrix(0.05,0,0,0.05,13.949999999999998,0)" xlink:href="#V"/><use transform="matrix(0.05,0,0,0.05,23.95,0)" xlink:href="#A"/><use transform="matrix(0.05,0,0,0.05,27.899999999999995,0)" xlink:href="#J"/></g><g id="t"><use transform="matrix(0.05,0,0,0.05,0,0)" xlink:href="#D"/><use transform="matrix(0.05,0,0,0.05,12,0)" xlink:href="#C"/><use transform="matrix(0.05,0,0,0.05,21,0)" xlink:href="#E"/><use transform="matrix(0.05,0,0,0.05,30,0)" xlink:href="#F"/><use transform="matrix(0.05,0,0,0.05,35,0)" xlink:href="#G"/><use transform="matrix(0.05,0,0,0.05,45,0)" xlink:href="#z"/></g><g id="u"><use transform="matrix(0.05,0,0,0.05,0,0)" xlink:href="#H"/><use transform="matrix(0.05,0,0,0.05,12,0)" xlink:href="#I"/><use transform="matrix(0.05,0,0,0.05,22,0)" xlink:href="#z"/><use transform="matrix(0.05,0,0,0.05,36.95,0)" xlink:href="#A"/><use transform="matrix(0.05,0,0,0.05,40.900000000000006,0)" xlink:href="#J"/><use transform="matrix(0.05,0,0,0.05,50.900000000000006,0)" xlink:href="#A"/><use transform="matrix(0.05,0,0,0.05,54.85,0)" xlink:href="#E"/><use transform="matrix(0.05,0,0,0.05,63.85,0)" xlink:href="#F"/><use transform="matrix(0.05,0,0,0.05,68.85000000000001,0)" xlink:href="#K"/><use transform="matrix(0.05,0,0,0.05,74.80000000000001,0)" xlink:href="#y"/><use transform="matrix(0.05,0,0,0.05,84.80000000000001,0)" xlink:href="#F"/><use transform="matrix(0.05,0,0,0.05,89.80000000000001,0)" xlink:href="#L"/><use transform="matrix(0.05,0,0,0.05,99.80000000000001,0)" xlink:href="#K"/></g><g id="v"><use transform="matrix(0.05,0,0,0.05,0,0)" xlink:href="#M"/><use transform="matrix(0.05,0,0,0.05,8.950000000000001,0)" xlink:href="#G"/><use transform="matrix(0.05,0,0,0.05,18.950000000000003,0)" xlink:href="#y"/><use transform="matrix(0.05,0,0,0.05,28.950000000000003,0)" xlink:href="#N"/><use transform="matrix(0.05,0,0,0.05,37.95,0)" xlink:href="#O"/><use transform="matrix(0.05,0,0,0.05,47.95,0)" xlink:href="#G"/><use transform="matrix(0.05,0,0,0.05,57.95,0)" xlink:href="#K"/></g><g id="w"><use transform="matrix(0.05,0,0,0.05,0,0)" xlink:href="#y"/><use transform="matrix(0.05,0,0,0.05,10,0)" xlink:href="#S"/><use transform="matrix(0.05,0,0,0.05,19,0)" xlink:href="#y"/><use transform="matrix(0.05,0,0,0.05,29,0)" xlink:href="#A"/><use transform="matrix(0.05,0,0,0.05,32.95,0)" xlink:href="#B"/><use transform="matrix(0.05,0,0,0.05,36.900000000000006,0)" xlink:href="#y"/><use transform="matrix(0.05,0,0,0.05,46.900000000000006,0)" xlink:href="#Q"/><use transform="matrix(0.05,0,0,0.05,56.900000000000006,0)" xlink:href="#A"/><use transform="matrix(0.05,0,0,0.05,60.85,0)" xlink:href="#B"/><use transform="matrix(0.05,0,0,0.05,64.80000000000001,0)" xlink:href="#A"/><use transform="matrix(0.05,0,0,0.05,68.75000000000001,0)" xlink:href="#F"/><use transform="matrix(0.05,0,0,0.05,73.75000000000001,0)" xlink:href="#C"/></g></defs></g></svg>