<svg xmlns="http://www.w3.org/2000/svg" xmlns:xlink="http://www.w3.org/1999/xlink" width="727.35" height="1000"><g transform="translate(-252.64999999999998 -60)"><path d="M377.25 257.25c0 9.53-7.72 17.25-17.25 17.25-9.53 0-17.25-7.72-17.25-17.25 0-9.53 7.72-17.25 17.25-17.25 9.53 0 17.25 7.72 17.25 17.25z" stroke="#000" stroke-width="2" fill="none"/><path d="M320 240h80v138h-80z" fill="none"/><path d="M360 274.5v48.3l40 55.2m-40-55.2L320 378m0-86.25h80" stroke="#000" stroke-width="2" fill="none"/><use xlink:href="#a" transform="matrix(1,0,0,1,240,378) translate(93.6 14.6)"/><path d="M720 160c0 44.18-35.82 80-80 80s-80-35.82-80-80 35.82-80 80-80 80 35.82 80 80z" stroke="#000" stroke-width="2" fill="none"/><use xlink:href="#b" transform="matrix(1,0,0,1,560,80) translate(45.03 49.4)"/><use xlink:href="#c" transform="matrix(1,0,0,1,560,80) translate(31.679999999999993 71)"/><use xlink:href="#d" transform="matrix(1,0,0,1,560,80) translate(32.10499999999999 92.60000000000001)"/><use xlink:href="#e" transform="matrix(1,0,0,1,560,80) translate(56.53 114.20000000000002)"/><path d="M400 320h80V160h80" stroke="#000" stroke-width="2" fill="none"/><path d="M560 160l-14.27 4.64v-9.28z"/><path d="M560.03 158.96L560 160v.68l.02.37-15.3 4.96v-12zm-13.3 4.3l10.03-3.26-10.03-3.26z"/><path d="M720 560c0 44.18-35.82 80-80 80s-80-35.82-80-80 35.82-80 80-80 80 35.82 80 80z" stroke="#000" stroke-width="2" fill="none"/><use xlink:href="#f" transform="matrix(1,0,0,1,560,480) translate(23.404999999999994 69.4)"/><use xlink:href="#g" transform="matrix(1,0,0,1,560,480) translate(69.05499999999999 69.4)"/><use xlink:href="#h" transform="matrix(1,0,0,1,560,480) translate(8.079999999999993 91)"/><use xlink:href="#i" transform="matrix(1,0,0,1,560,480) translate(104.98 91)"/><path d="M377.25 497.25c0 9.53-7.72 17.25-17.25 17.25-9.53 0-17.25-7.72-17.25-17.25 0-9.53 7.72-17.25 17.25-17.25 9.53 0 17.25 7.72 17.25 17.25z" stroke="#000" stroke-width="2" fill="none"/><path d="M320 480h80v138h-80z" fill="none"/><path d="M360 514.5v48.3l40 55.2m-40-55.2L320 618m0-86.25h80" stroke="#000" stroke-width="2" fill="none"/><use xlink:href="#j" transform="matrix(1,0,0,1,240,618) translate(88.05 14.6)"/><path d="M400 320h240v160" stroke="#000" stroke-width="2" fill="none"/><path d="M640 480l-4.64-14.27h9.28z"/><path d="M641.04 480.03L640 480h-.68l-.37.02-4.96-15.3h12zm-4.3-13.3l3.26 10.03 3.26-10.03z"/><path d="M720 960c0 44.18-35.82 80-80 80s-80-35.82-80-80 35.82-80 80-80 80 35.82 80 80z" stroke="#000" stroke-width="2" fill="none"/><use xlink:href="#k" transform="matrix(1,0,0,1,560,880) translate(30.62999999999999 64.4)"/><use xlink:href="#l" transform="matrix(1,0,0,1,560,880) translate(102.48 64.4)"/><use xlink:href="#m" transform="matrix(1,0,0,1,560,880) translate(29.12999999999999 86)"/><use xlink:href="#n" transform="matrix(1,0,0,1,560,880) translate(40.07999999999999 107.6)"/><path d="M377.25 737.25c0 9.53-7.72 17.25-17.25 17.25-9.53 0-17.25-7.72-17.25-17.25 0-9.53 7.72-17.25 17.25-17.25 9.53 0 17.25 7.72 17.25 17.25z" stroke="#000" stroke-width="2" fill="none"/><path d="M320 720h80v138h-80z" fill="none"/><path d="M360 754.5v48.3l40 55.2m-40-55.2L320 858m0-86.25h80" stroke="#000" stroke-width="2" fill="none"/><use xlink:href="#o" transform="matrix(1,0,0,1,240,858) translate(34.64999999999999 14.6)"/><use xlink:href="#p" transform="matrix(1,0,0,1,240,858) translate(99.6 14.6)"/><path d="M400 560h159" stroke="#000" stroke-width="2" fill="none"/><path d="M559 560l-14.27 4.64v-9.28z"/><path d="M560.02 559.28l-.02.72V560.73L543.73 566v-12zm-14.3 3.98l10.04-3.26-10.03-3.26z"/><path d="M400 800h240V640" stroke="#000" stroke-width="2" fill="none"/><path d="M644.64 654.27h-9.28L640 640z"/><path d="M640 640h.68l.37-.02 4.96 15.3h-12l4.96-15.3zm-3.26 13.27h6.52L640 643.24z"/><path d="M400 800h79.5v159.03h79.53" stroke="#000" stroke-width="2" fill="none"/><path d="M559.03 959.03l-14.27 4.64v-9.28z"/><path d="M560.05 958.3l-.04 1.46-16.24 5.28v-12.02zm-14.3 4l10.04-3.27-10.04-3.26z"/><path d="M960 560c0 22.1-17.9 40-40 40s-40-17.9-40-40 17.9-40 40-40 40 17.9 40 40z" stroke="#000" stroke-width="2" fill="none"/><use xlink:href="#q" transform="matrix(1,0,0,1,880,520) translate(15.604999999999999 44.4)"/><path d="M880 560H721" fill="none"/><path d="M880 560h-10.6m-10.6 0h-21.2m-10.6 0h-21.2m-10.6 0H774m-10.6 0h-21.2m-10.6 0H721" stroke="#000" stroke-width="2" fill="none"/><path d="M880 560l.04 1H880v-2h.06zM738.72 550.68L722.96 560l15.76 9.32-1 1.72-17.74-10.48.02-.56v-.57l17.7-10.47z"/><path fill="#fff" d="M746.55 549.2h107.9v21.6h-107.9z"/><use xlink:href="#r" transform="matrix(1,0,0,1,746.5500046782846,549.2) translate(0 14.4)"/><path d="M920 520V160H720" fill="none"/><path d="M920 520v-9.82m0-9.83V480.7m0-9.82v-19.65m0-9.83v-19.65m0-9.82v-19.65m0-9.82V362.8m0-9.82v-19.65m0-9.82v-19.64m0-9.82V274.4m0-9.84V244.9m0-9.8v-19.66m0-9.83v-19.64m0-9.82V160h-3.5m-9.83 0h-19.65m-9.83 0h-19.66m-9.82 0h-19.65m-9.82 0H798.6m-9.83 0h-19.65m-9.82 0h-19.65m-9.83 0H720" stroke="#000" stroke-width="2" fill="none"/><path d="M921 520.06l-1-.06-1 .04V520h2zM737.72 150.68L721.96 160l15.76 9.32-1 1.72-16.76-9.9.04-1.14v-.68l-.02-.47 16.73-9.9z"/><path fill="#fff" d="M763.88 149.2h107.9v21.6h-107.9z"/><g><use xlink:href="#r" transform="matrix(1,0,0,1,763.8785947585411,149.2) translate(0 14.4)"/></g><path d="M920 600v360H720" fill="none"/><path d="M920 600v9.82m0 9.83v19.65m0 9.82v19.65m0 9.83v19.65m0 9.82v19.65m0 9.82v19.65m0 9.82v19.65m0 9.82v19.64m0 9.82v19.65m0 9.84v19.65m0 9.8v19.66m0 9.83v19.64m0 9.82V960h-3.5m-9.83 0h-19.65m-9.83 0h-19.66m-9.82 0h-19.65m-9.82 0H798.6m-9.83 0h-19.65m-9.82 0h-19.65m-9.83 0H720" stroke="#000" stroke-width="2" fill="none"/><path d="M920 600h-1v-.06zm1 0h-1l1-.04zM737.72 950.68L721.96 960l15.76 9.32-1 1.72-16.76-9.9.04-1.14v-.68l-.02-.47 16.73-9.9z"/><path fill="#fff" d="M765.6 949.2h107.9v21.6H765.6z"/><g><use xlink:href="#r" transform="matrix(1,0,0,1,765.5982723799016,949.2) translate(0 14.4)"/></g><defs><path d="M63-220v92h138v28H63V0H30v-248h175v28H63" id="s"/><path d="M141-36C126-15 110 5 73 4 37 3 15-17 15-53c-1-64 63-63 125-63 3-35-9-54-41-54-24 1-41 7-42 31l-33-3c5-37 33-52 76-52 45 0 72 20 72 64v82c-1 20 7 32 28 27v20c-31 9-61-2-59-35zM48-53c0 20 12 33 32 33 41-3 63-29 60-74-43 2-92-5-92 41" id="t"/><path d="M210-169c-67 3-38 105-44 169h-31v-121c0-29-5-50-35-48C34-165 62-65 56 0H25l-1-190h30c1 10-1 24 2 32 10-44 99-50 107 0 11-21 27-35 58-36 85-2 47 119 55 194h-31v-121c0-29-5-49-35-48" id="u"/><path d="M24-231v-30h32v30H24zM24 0v-190h32V0H24" id="v"/><path d="M24 0v-261h32V0H24" id="w"/><path d="M179-190L93 31C79 59 56 82 12 73V49c39 6 53-20 64-50L1-190h34L92-34l54-156h33" id="x"/><g id="a"><use transform="matrix(0.05,0,0,0.05,0,0)" xlink:href="#s"/><use transform="matrix(0.05,0,0,0.05,10.950000000000001,0)" xlink:href="#t"/><use transform="matrix(0.05,0,0,0.05,20.950000000000003,0)" xlink:href="#u"/><use transform="matrix(0.05,0,0,0.05,35.900000000000006,0)" xlink:href="#v"/><use transform="matrix(0.05,0,0,0.05,39.85000000000001,0)" xlink:href="#w"/><use transform="matrix(0.05,0,0,0.05,43.80000000000001,0)" xlink:href="#x"/></g><path d="M240-174c0 40-23 61-54 70L253 0h-59l-57-94H76V0H24v-248c93 4 217-23 216 74zM76-134c48-2 112 12 112-38 0-48-66-32-112-35v73" id="y"/><path d="M185-48c-13 30-37 53-82 52C43 2 14-33 14-96s30-98 90-98c62 0 83 45 84 108H66c0 31 8 55 39 56 18 0 30-7 34-22zm-45-69c5-46-57-63-70-21-2 6-4 13-4 21h74" id="z"/><path d="M137-138c1-29-70-34-71-4 15 46 118 7 119 86 1 83-164 76-172 9l43-7c4 19 20 25 44 25 33 8 57-30 24-41C81-84 22-81 20-136c-2-80 154-74 161-7" id="A"/><path d="M135-150c-39-12-60 13-60 57V0H25l-1-190h47c2 13-1 29 3 40 6-28 27-53 61-41v41" id="B"/><path d="M128 0H69L1-190h53L99-40l48-150h52" id="C"/><g id="b"><use transform="matrix(0.05,0,0,0.05,0,0)" xlink:href="#y"/><use transform="matrix(0.05,0,0,0.05,12.950000000000001,0)" xlink:href="#z"/><use transform="matrix(0.05,0,0,0.05,22.950000000000003,0)" xlink:href="#A"/><use transform="matrix(0.05,0,0,0.05,32.95,0)" xlink:href="#z"/><use transform="matrix(0.05,0,0,0.05,42.95,0)" xlink:href="#B"/><use transform="matrix(0.05,0,0,0.05,49.95,0)" xlink:href="#C"/><use transform="matrix(0.05,0,0,0.05,59.95,0)" xlink:href="#z"/></g><path d="M115-3C79 11 28 4 28-45v-112H4v-33h27l15-45h31v45h36v33H77v99c-1 23 16 31 38 25v30" id="D"/><path d="M85 4C-2 5 27-109 22-190h50c7 57-23 150 33 157 60-5 35-97 40-157h50l1 190h-47c-2-12 1-28-3-38-12 25-28 42-61 42" id="E"/><path d="M88-194c31-1 46 15 58 34l-1-101h50l1 261h-48c-2-10 0-23-3-31C134-8 116 4 84 4 32 4 16-41 15-95c0-56 19-97 73-99zm17 164c33 0 40-30 41-66 1-37-9-64-41-64s-38 30-39 65c0 43 13 65 39 65" id="F"/><path d="M135-194c87-1 58 113 63 194h-50c-7-57 23-157-34-157-59 0-34 97-39 157H25l-1-190h47c2 12-1 28 3 38 12-26 28-41 61-42" id="G"/><path d="M14-72v-43h91v43H14" id="H"/><path d="M25 0v-261h50V0H25" id="I"/><g id="c"><use transform="matrix(0.05,0,0,0.05,0,0)" xlink:href="#A"/><use transform="matrix(0.05,0,0,0.05,10,0)" xlink:href="#D"/><use transform="matrix(0.05,0,0,0.05,15.949999999999998,0)" xlink:href="#E"/><use transform="matrix(0.05,0,0,0.05,26.899999999999995,0)" xlink:href="#F"/><use transform="matrix(0.05,0,0,0.05,37.85,0)" xlink:href="#z"/><use transform="matrix(0.05,0,0,0.05,47.85,0)" xlink:href="#G"/><use transform="matrix(0.05,0,0,0.05,58.800000000000004,0)" xlink:href="#D"/><use transform="matrix(0.05,0,0,0.05,64.75,0)" xlink:href="#H"/><use transform="matrix(0.05,0,0,0.05,70.7,0)" xlink:href="#I"/><use transform="matrix(0.05,0,0,0.05,75.7,0)" xlink:href="#z"/><use transform="matrix(0.05,0,0,0.05,85.7,0)" xlink:href="#F"/></g><path d="M190-63c-7 42-38 67-86 67-59 0-84-38-90-98-12-110 154-137 174-36l-49 2c-2-19-15-32-35-32-30 0-35 28-38 64-6 74 65 87 74 30" id="J"/><path d="M110-194c64 0 96 36 96 99 0 64-35 99-97 99-61 0-95-36-95-99 0-62 34-99 96-99zm-1 164c35 0 45-28 45-65 0-40-10-65-43-65-34 0-45 26-45 65 0 36 10 65 43 65" id="K"/><path d="M121-226c-27-7-43 5-38 36h38v33H83V0H34v-157H6v-33h28c-9-59 32-81 87-68v32" id="L"/><g id="d"><use transform="matrix(0.05,0,0,0.05,0,0)" xlink:href="#J"/><use transform="matrix(0.05,0,0,0.05,10,0)" xlink:href="#K"/><use transform="matrix(0.05,0,0,0.05,20.950000000000003,0)" xlink:href="#G"/><use transform="matrix(0.05,0,0,0.05,31.900000000000006,0)" xlink:href="#L"/><use transform="matrix(0.05,0,0,0.05,37.85000000000001,0)" xlink:href="#z"/><use transform="matrix(0.05,0,0,0.05,47.85000000000001,0)" xlink:href="#B"/><use transform="matrix(0.05,0,0,0.05,54.85,0)" xlink:href="#z"/><use transform="matrix(0.05,0,0,0.05,64.85000000000001,0)" xlink:href="#G"/><use transform="matrix(0.05,0,0,0.05,75.80000000000001,0)" xlink:href="#J"/><use transform="matrix(0.05,0,0,0.05,85.80000000000001,0)" xlink:href="#z"/></g><path d="M25-224v-37h50v37H25zM25 0v-190h50V0H25" id="M"/><path d="M220-157c-53 9-28 100-34 157h-49v-107c1-27-5-49-29-50C55-147 81-57 75 0H25l-1-190h47c2 12-1 28 3 38 10-53 101-56 108 0 13-22 24-43 59-42 82 1 51 116 57 194h-49v-107c-1-25-5-48-29-50" id="N"/><g id="e"><use transform="matrix(0.05,0,0,0.05,0,0)" xlink:href="#D"/><use transform="matrix(0.05,0,0,0.05,5.95,0)" xlink:href="#M"/><use transform="matrix(0.05,0,0,0.05,10.95,0)" xlink:href="#N"/><use transform="matrix(0.05,0,0,0.05,26.950000000000003,0)" xlink:href="#z"/><use transform="matrix(0.05,0,0,0.05,36.95,0)" xlink:href="#A"/></g><path d="M147 0H94L2-248h55l64 206c17-72 42-137 63-206h54" id="O"/><path d="M231 0h-52l-39-155L100 0H48L-1-190h46L77-45c9-52 24-97 36-145h53l37 145 32-145h46" id="P"/><g id="f"><use transform="matrix(0.05,0,0,0.05,0,0)" xlink:href="#O"/><use transform="matrix(0.05,0,0,0.05,11.65,0)" xlink:href="#M"/><use transform="matrix(0.05,0,0,0.05,16.65,0)" xlink:href="#z"/><use transform="matrix(0.05,0,0,0.05,26.649999999999995,0)" xlink:href="#P"/></g><path d="M136-208V0H84v-208H4v-40h212v40h-80" id="Q"/><path d="M133-34C117-15 103 5 69 4 32 3 11-16 11-54c-1-60 55-63 116-61 1-26-3-47-28-47-18 1-26 9-28 27l-52-2c7-38 36-58 82-57s74 22 75 68l1 82c-1 14 12 18 25 15v27c-30 8-71 5-69-32zm-48 3c29 0 43-24 42-57-32 0-66-3-65 30 0 17 8 27 23 27" id="R"/><path d="M114-157C55-157 80-60 75 0H25v-261h50l-1 109c12-26 28-41 61-42 86-1 58 113 63 194h-50c-7-57 23-157-34-157" id="S"/><g id="g"><use transform="matrix(0.05,0,0,0.05,0,0)" xlink:href="#Q"/><use transform="matrix(0.05,0,0,0.05,9.600000000000001,0)" xlink:href="#z"/><use transform="matrix(0.05,0,0,0.05,19.6,0)" xlink:href="#R"/><use transform="matrix(0.05,0,0,0.05,29.6,0)" xlink:href="#J"/><use transform="matrix(0.05,0,0,0.05,39.6,0)" xlink:href="#S"/><use transform="matrix(0.05,0,0,0.05,50.550000000000004,0)" xlink:href="#z"/><use transform="matrix(0.05,0,0,0.05,60.550000000000004,0)" xlink:href="#B"/></g><path d="M135-194c52 0 70 43 70 98 0 56-19 99-73 100-30 1-46-15-58-35L72 0H24l1-261h50v104c11-23 29-37 60-37zM114-30c31 0 40-27 40-66 0-37-7-63-39-63s-41 28-41 65c0 36 8 64 40 64" id="T"/><path d="M123 10C108 53 80 86 19 72V37c35 8 53-11 59-39L3-190h52l48 148c12-52 28-100 44-148h51" id="U"/><g id="h"><use transform="matrix(0.05,0,0,0.05,0,0)" xlink:href="#R"/><use transform="matrix(0.05,0,0,0.05,10,0)" xlink:href="#C"/><use transform="matrix(0.05,0,0,0.05,20,0)" xlink:href="#R"/><use transform="matrix(0.05,0,0,0.05,30,0)" xlink:href="#M"/><use transform="matrix(0.05,0,0,0.05,35,0)" xlink:href="#I"/><use transform="matrix(0.05,0,0,0.05,40,0)" xlink:href="#R"/><use transform="matrix(0.05,0,0,0.05,50,0)" xlink:href="#T"/><use transform="matrix(0.05,0,0,0.05,60.95,0)" xlink:href="#M"/><use transform="matrix(0.05,0,0,0.05,65.95,0)" xlink:href="#I"/><use transform="matrix(0.05,0,0,0.05,70.95,0)" xlink:href="#M"/><use transform="matrix(0.05,0,0,0.05,75.95,0)" xlink:href="#D"/><use transform="matrix(0.05,0,0,0.05,81.9,0)" xlink:href="#U"/></g><g id="i"><use transform="matrix(0.05,0,0,0.05,0,0)" xlink:href="#D"/><use transform="matrix(0.05,0,0,0.05,5.95,0)" xlink:href="#M"/><use transform="matrix(0.05,0,0,0.05,10.95,0)" xlink:href="#N"/><use transform="matrix(0.05,0,0,0.05,26.950000000000003,0)" xlink:href="#z"/><use transform="matrix(0.05,0,0,0.05,36.95,0)" xlink:href="#A"/></g><path d="M127-220V0H93v-220H8v-28h204v28h-85" id="V"/><path d="M100-194c63 0 86 42 84 106H49c0 40 14 67 53 68 26 1 43-12 49-29l28 8c-11 28-37 45-77 45C44 4 14-33 15-96c1-61 26-98 85-98zm52 81c6-60-76-77-97-28-3 7-6 17-6 28h103" id="W"/><path d="M96-169c-40 0-48 33-48 73s9 75 48 75c24 0 41-14 43-38l32 2c-6 37-31 61-74 61-59 0-76-41-82-99-10-93 101-131 147-64 4 7 5 14 7 22l-32 3c-4-21-16-35-41-35" id="X"/><path d="M106-169C34-169 62-67 57 0H25v-261h32l-1 103c12-21 28-36 61-36 89 0 53 116 60 194h-32v-121c2-32-8-49-39-48" id="Y"/><path d="M114-163C36-179 61-72 57 0H25l-1-190h30c1 12-1 29 2 39 6-27 23-49 58-41v29" id="Z"/><g id="j"><use transform="matrix(0.05,0,0,0.05,0,0)" xlink:href="#V"/><use transform="matrix(0.05,0,0,0.05,8.950000000000001,0)" xlink:href="#W"/><use transform="matrix(0.05,0,0,0.05,18.950000000000003,0)" xlink:href="#t"/><use transform="matrix(0.05,0,0,0.05,28.950000000000003,0)" xlink:href="#X"/><use transform="matrix(0.05,0,0,0.05,37.95,0)" xlink:href="#Y"/><use transform="matrix(0.05,0,0,0.05,47.95,0)" xlink:href="#W"/><use transform="matrix(0.05,0,0,0.05,57.95,0)" xlink:href="#Z"/></g><path d="M230 0l2-204L168 0h-37L68-204 70 0H24v-248h70l56 185 57-185h69V0h-46" id="aa"/><path d="M195-6C206 82 75 100 31 46c-4-6-6-13-8-21l49-6c3 16 16 24 34 25 40 0 42-37 40-79-11 22-30 35-61 35-53 0-70-43-70-97 0-56 18-96 73-97 30 0 46 14 59 34l2-30h47zm-90-29c32 0 41-27 41-63 0-35-9-62-40-62-32 0-39 29-40 63 0 36 9 62 39 62" id="ab"/><g id="k"><use transform="matrix(0.05,0,0,0.05,0,0)" xlink:href="#aa"/><use transform="matrix(0.05,0,0,0.05,14.950000000000001,0)" xlink:href="#R"/><use transform="matrix(0.05,0,0,0.05,24.950000000000003,0)" xlink:href="#G"/><use transform="matrix(0.05,0,0,0.05,35.900000000000006,0)" xlink:href="#R"/><use transform="matrix(0.05,0,0,0.05,45.900000000000006,0)" xlink:href="#ab"/><use transform="matrix(0.05,0,0,0.05,56.85,0)" xlink:href="#z"/></g><g id="l"><use transform="matrix(0.05,0,0,0.05,0,0)" xlink:href="#D"/><use transform="matrix(0.05,0,0,0.05,5.95,0)" xlink:href="#S"/><use transform="matrix(0.05,0,0,0.05,16.900000000000002,0)" xlink:href="#z"/></g><path d="M199 0l-22-63H83L61 0H9l90-248h61L250 0h-51zm-33-102l-36-108c-10 38-24 72-36 108h72" id="ac"/><g id="m"><use transform="matrix(0.05,0,0,0.05,0,0)" xlink:href="#ac"/><use transform="matrix(0.05,0,0,0.05,12.950000000000001,0)" xlink:href="#A"/><use transform="matrix(0.05,0,0,0.05,22.950000000000003,0)" xlink:href="#A"/><use transform="matrix(0.05,0,0,0.05,32.95,0)" xlink:href="#K"/><use transform="matrix(0.05,0,0,0.05,43.900000000000006,0)" xlink:href="#J"/><use transform="matrix(0.05,0,0,0.05,53.900000000000006,0)" xlink:href="#M"/><use transform="matrix(0.05,0,0,0.05,58.900000000000006,0)" xlink:href="#R"/><use transform="matrix(0.05,0,0,0.05,68.9,0)" xlink:href="#D"/><use transform="matrix(0.05,0,0,0.05,74.85000000000001,0)" xlink:href="#M"/><use transform="matrix(0.05,0,0,0.05,79.85000000000001,0)" xlink:href="#K"/><use transform="matrix(0.05,0,0,0.05,90.80000000000001,0)" xlink:href="#G"/></g><path d="M24-248c120-7 223 5 221 122C244-46 201 0 124 0H24v-248zM76-40c74 7 117-18 117-86 0-67-45-88-117-82v168" id="ad"/><g id="n"><use transform="matrix(0.05,0,0,0.05,0,0)" xlink:href="#ad"/><use transform="matrix(0.05,0,0,0.05,12.950000000000001,0)" xlink:href="#R"/><use transform="matrix(0.05,0,0,0.05,22.950000000000003,0)" xlink:href="#D"/><use transform="matrix(0.05,0,0,0.05,28.900000000000002,0)" xlink:href="#R"/><use transform="matrix(0.05,0,0,0.05,38.900000000000006,0)" xlink:href="#T"/><use transform="matrix(0.05,0,0,0.05,49.85000000000001,0)" xlink:href="#R"/><use transform="matrix(0.05,0,0,0.05,59.85,0)" xlink:href="#A"/><use transform="matrix(0.05,0,0,0.05,69.85000000000001,0)" xlink:href="#z"/></g><path d="M185-189c-5-48-123-54-124 2 14 75 158 14 163 119 3 78-121 87-175 55-17-10-28-26-33-46l33-7c5 56 141 63 141-1 0-78-155-14-162-118-5-82 145-84 179-34 5 7 8 16 11 25" id="ae"/><path d="M135-143c-3-34-86-38-87 0 15 53 115 12 119 90S17 21 10-45l28-5c4 36 97 45 98 0-10-56-113-15-118-90-4-57 82-63 122-42 12 7 21 19 24 35" id="af"/><path d="M59-47c-2 24 18 29 38 22v24C64 9 27 4 27-40v-127H5v-23h24l9-43h21v43h35v23H59v120" id="ag"/><g id="o"><use transform="matrix(0.05,0,0,0.05,0,0)" xlink:href="#ae"/><use transform="matrix(0.05,0,0,0.05,12,0)" xlink:href="#x"/><use transform="matrix(0.05,0,0,0.05,21,0)" xlink:href="#af"/><use transform="matrix(0.05,0,0,0.05,30,0)" xlink:href="#ag"/><use transform="matrix(0.05,0,0,0.05,35,0)" xlink:href="#W"/><use transform="matrix(0.05,0,0,0.05,45,0)" xlink:href="#u"/></g><path d="M205 0l-28-72H64L36 0H1l101-248h38L239 0h-34zm-38-99l-47-123c-12 45-31 82-46 123h93" id="ah"/><path d="M85-194c31 0 48 13 60 33l-1-100h32l1 261h-30c-2-10 0-23-3-31C134-8 116 4 85 4 32 4 16-35 15-94c0-66 23-100 70-100zm9 24c-40 0-46 34-46 75 0 40 6 74 45 74 42 0 51-32 51-76 0-42-9-74-50-73" id="ai"/><path d="M117-194c89-4 53 116 60 194h-32v-121c0-31-8-49-39-48C34-167 62-67 57 0H25l-1-190h30c1 10-1 24 2 32 11-22 29-35 61-36" id="aj"/><path d="M100-194c62-1 85 37 85 99 1 63-27 99-86 99S16-35 15-95c0-66 28-99 85-99zM99-20c44 1 53-31 53-75 0-43-8-75-51-75s-53 32-53 75 10 74 51 75" id="ak"/><g id="p"><use transform="matrix(0.05,0,0,0.05,0,0)" xlink:href="#ah"/><use transform="matrix(0.05,0,0,0.05,12,0)" xlink:href="#ai"/><use transform="matrix(0.05,0,0,0.05,22,0)" xlink:href="#u"/><use transform="matrix(0.05,0,0,0.05,36.95,0)" xlink:href="#v"/><use transform="matrix(0.05,0,0,0.05,40.900000000000006,0)" xlink:href="#aj"/><use transform="matrix(0.05,0,0,0.05,50.900000000000006,0)" xlink:href="#v"/><use transform="matrix(0.05,0,0,0.05,54.85,0)" xlink:href="#af"/><use transform="matrix(0.05,0,0,0.05,63.85,0)" xlink:href="#ag"/><use transform="matrix(0.05,0,0,0.05,68.85000000000001,0)" xlink:href="#Z"/><use transform="matrix(0.05,0,0,0.05,74.80000000000001,0)" xlink:href="#t"/><use transform="matrix(0.05,0,0,0.05,84.80000000000001,0)" xlink:href="#ag"/><use transform="matrix(0.05,0,0,0.05,89.80000000000001,0)" xlink:href="#ak"/><use transform="matrix(0.05,0,0,0.05,99.80000000000001,0)" xlink:href="#Z"/></g><path d="M24 0v-248h52v208h133V0H24" id="al"/><g id="q"><use transform="matrix(0.05,0,0,0.05,0,0)" xlink:href="#al"/><use transform="matrix(0.05,0,0,0.05,10.950000000000001,0)" xlink:href="#K"/><use transform="matrix(0.05,0,0,0.05,21.900000000000002,0)" xlink:href="#ab"/><use transform="matrix(0.05,0,0,0.05,32.85,0)" xlink:href="#M"/><use transform="matrix(0.05,0,0,0.05,37.85,0)" xlink:href="#G"/></g><path d="M18-100v-36l175-74v27L42-118l151 64v27" id="am"/><path d="M84 4C-5 8 30-112 23-190h32v120c0 31 7 50 39 49 72-2 45-101 50-169h31l1 190h-30c-1-10 1-25-2-33-11 22-28 36-60 37" id="an"/><path d="M18-27v-27l151-64-151-65v-27l175 74v36" id="ao"/><g id="r"><use transform="matrix(0.05,0,0,0.05,0,0)" xlink:href="#am"/><use transform="matrix(0.05,0,0,0.05,10.5,0)" xlink:href="#am"/><use transform="matrix(0.05,0,0,0.05,21,0)" xlink:href="#v"/><use transform="matrix(0.05,0,0,0.05,24.95,0)" xlink:href="#aj"/><use transform="matrix(0.05,0,0,0.05,34.95,0)" xlink:href="#X"/><use transform="matrix(0.05,0,0,0.05,43.95,0)" xlink:href="#w"/><use transform="matrix(0.05,0,0,0.05,47.900000000000006,0)" xlink:href="#an"/><use transform="matrix(0.05,0,0,0.05,57.900000000000006,0)" xlink:href="#ai"/><use transform="matrix(0.05,0,0,0.05,67.9,0)" xlink:href="#W"/><use transform="matrix(0.05,0,0,0.05,77.9,0)" xlink:href="#af"/><use transform="matrix(0.05,0,0,0.05,86.9,0)" xlink:href="#ao"/><use transform="matrix(0.05,0,0,0.05,97.4,0)" xlink:href="#ao"/></g></defs></g></svg>