<svg xmlns="http://www.w3.org/2000/svg" xmlns:xlink="http://www.w3.org/1999/xlink" width="1140" height="700.2"><g transform="translate(-105 -60)"><path d="M480 160h80v-40h-80z" stroke="#000" stroke-width="2" fill="#fff"/><use xlink:href="#a" transform="matrix(1,0,0,1,485,125) translate(35 20.4)"/><path d="M720 120c0 22.1-17.9 40-40 40s-40-17.9-40-40 17.9-40 40-40 40 17.9 40 40z" stroke="#000" stroke-width="2" fill="#fff"/><use xlink:href="#a" transform="matrix(1,0,0,1,645,85) translate(35 40.4)"/><path d="M800 110.56L840 80l40 30.56L864.72 160h-49.44z" stroke="#000" stroke-width="2" fill="#fff"/><use xlink:href="#a" transform="matrix(1,0,0,1,805,85) translate(35 40.4)"/><path d="M480 160h80v60h-80z" fill="none"/><use xlink:href="#b" transform="matrix(1,0,0,1,485,165) translate(1.625 28.6)"/><path d="M640 160h80v60h-80z" fill="none"/><use xlink:href="#c" transform="matrix(1,0,0,1,645,165) translate(1.2249999999999943 28.6)"/><path d="M800 160h80v60h-80z" fill="none"/><use xlink:href="#d" transform="matrix(1,0,0,1,805,165) translate(-4.425000000000004 28.6)"/><path d="M795 580.2h80v-40h-80z" stroke="#000" stroke-width="2" fill="#fff"/><use xlink:href="#e" transform="matrix(1,0,0,1,800,545.2) translate(30 18.6)"/><path d="M925 700.2c0 22.1-17.9 40-40 40s-40-17.9-40-40 17.9-40 40-40 40 17.9 40 40z" stroke="#000" stroke-width="2" fill="#fff"/><use xlink:href="#f" transform="matrix(1,0,0,1,850,665.2) translate(30 38.6)"/><path d="M985 700.2c0 22.1-17.9 40-40 40s-40-17.9-40-40 17.9-40 40-40 40 17.9 40 40z" stroke="#000" stroke-width="2" fill="#fff"/><use xlink:href="#e" transform="matrix(1,0,0,1,910,665.2) translate(30 38.6)"/><path d="M1045 700.2c0 22.1-17.9 40-40 40s-40-17.9-40-40 17.9-40 40-40 40 17.9 40 40z" stroke="#000" stroke-width="2" fill="#fff"/><use xlink:href="#g" transform="matrix(1,0,0,1,970,665.2) translate(30 38.6)"/><path d="M1105 700.2c0 22.1-17.9 40-40 40s-40-17.9-40-40 17.9-40 40-40 40 17.9 40 40z" stroke="#000" stroke-width="2" fill="#fff"/><use xlink:href="#h" transform="matrix(1,0,0,1,1030,665.2) translate(30 38.6)"/><path d="M1165 700.2c0 22.1-17.9 40-40 40s-40-17.9-40-40 17.9-40 40-40 40 17.9 40 40z" stroke="#000" stroke-width="2" fill="#fff"/><use xlink:href="#i" transform="matrix(1,0,0,1,1090,665.2) translate(30 38.6)"/><path d="M1225 700.2c0 22.1-17.9 40-40 40s-40-17.9-40-40 17.9-40 40-40 40 17.9 40 40z" stroke="#000" stroke-width="2" fill="#fff"/><use xlink:href="#j" transform="matrix(1,0,0,1,1150,665.2) translate(30 38.6)"/><path d="M835 580.2v40h50v40" stroke="#000" stroke-width="2" fill="none"/><path d="M885 660.2l-4.64-14.27h9.28z"/><path d="M886.03 660.26l-1.03-.06-1.04.04-4.97-15.3h12zm-4.3-13.33l3.27 10.03 3.26-10.03z"/><path d="M835 580.2v40h110v40" stroke="#000" stroke-width="2" fill="none"/><path d="M945 660.2l-4.64-14.27h9.28z"/><path d="M946.03 660.26l-1.03-.06-1.04.04-4.97-15.3h12zm-4.3-13.33l3.27 10.03 3.26-10.03z"/><path d="M835 580.2v40h170v40" stroke="#000" stroke-width="2" fill="none"/><path d="M1005 660.2l-4.64-14.27h9.28z"/><path d="M1006.03 660.26l-1.03-.06-1.04.04-4.97-15.3h12zm-4.3-13.33l3.27 10.03 3.26-10.03z"/><path d="M835 580.2v40h230v40" stroke="#000" stroke-width="2" fill="none"/><path d="M1065 660.2l-4.64-14.27h9.28z"/><path d="M1066.03 660.26l-1.03-.06-1.04.04-4.97-15.3h12zm-4.3-13.33l3.27 10.03 3.26-10.03z"/><path d="M835 580.2v40h290v40" stroke="#000" stroke-width="2" fill="none"/><path d="M1125 660.2l-4.64-14.27h9.28z"/><path d="M1126.03 660.26l-1.03-.06-1.04.04-4.97-15.3h12zm-4.3-13.33l3.27 10.03 3.26-10.03z"/><path d="M835 580.2v40h350v40" stroke="#000" stroke-width="2" fill="none"/><path d="M1185 660.2l-4.64-14.27h9.28z"/><path d="M1186.03 660.26l-1.03-.06-1.04.04-4.97-15.3h12zm-4.3-13.33l3.27 10.03 3.26-10.03z"/><path d="M475 579.7h80v-40h-80z" stroke="#000" stroke-width="2" fill="#fff"/><use xlink:href="#f" transform="matrix(1,0,0,1,480,544.7) translate(30 18.6)"/><path d="M505 700c0 22.1-17.9 40-40 40s-40-17.9-40-40 17.9-40 40-40 40 17.9 40 40z" stroke="#000" stroke-width="2" fill="#fff"/><use xlink:href="#f" transform="matrix(1,0,0,1,430,665) translate(30 38.6)"/><path d="M445 699.7c0 22.1-17.9 40-40 40s-40-17.9-40-40 17.9-40 40-40 40 17.9 40 40z" stroke="#000" stroke-width="2" fill="#fff"/><use xlink:href="#e" transform="matrix(1,0,0,1,370,664.7) translate(30 38.6)"/><path d="M385 699.7c0 22.1-17.9 40-40 40s-40-17.9-40-40 17.9-40 40-40 40 17.9 40 40z" stroke="#000" stroke-width="2" fill="#fff"/><use xlink:href="#g" transform="matrix(1,0,0,1,310,664.7) translate(30 38.6)"/><path d="M325 699.7c0 22.1-17.9 40-40 40s-40-17.9-40-40 17.9-40 40-40 40 17.9 40 40z" stroke="#000" stroke-width="2" fill="#fff"/><use xlink:href="#h" transform="matrix(1,0,0,1,250,664.7) translate(30 38.6)"/><path d="M265 699.7c0 22.1-17.9 40-40 40s-40-17.9-40-40 17.9-40 40-40 40 17.9 40 40z" stroke="#000" stroke-width="2" fill="#fff"/><use xlink:href="#i" transform="matrix(1,0,0,1,190,664.7) translate(30 38.6)"/><path d="M205 699.7c0 22.1-17.9 40-40 40s-40-17.9-40-40 17.9-40 40-40 40 17.9 40 40z" stroke="#000" stroke-width="2" fill="#fff"/><use xlink:href="#j" transform="matrix(1,0,0,1,130,664.7) translate(30 38.6)"/><path d="M515 579.7v40.15h-50V660" stroke="#000" stroke-width="2" fill="none"/><path d="M465 660l-4.64-14.27h9.28z"/><path d="M466.03 660.06L465 660l-1.04.04-4.97-15.3h12zm-4.3-13.33l3.27 10.03 3.26-10.03z"/><path d="M515 579.7v40H405v40" stroke="#000" stroke-width="2" fill="none"/><path d="M405 659.7l-4.64-14.27h9.28z"/><path d="M406.03 659.76l-1.03-.06-1.04.04-4.97-15.3h12zm-4.3-13.33l3.27 10.03 3.26-10.03z"/><path d="M515 579.7v40H345v40" stroke="#000" stroke-width="2" fill="none"/><path d="M345 659.7l-4.64-14.27h9.28z"/><path d="M346.03 659.76l-1.03-.06-1.04.04-4.97-15.3h12zm-4.3-13.33l3.27 10.03 3.26-10.03z"/><path d="M515 579.7v40H285v40" stroke="#000" stroke-width="2" fill="none"/><path d="M285 659.7l-4.64-14.27h9.28z"/><path d="M286.03 659.76l-1.03-.06-1.04.04-4.97-15.3h12zm-4.3-13.33l3.27 10.03 3.26-10.03z"/><path d="M515 579.7v40H225v40" stroke="#000" stroke-width="2" fill="none"/><path d="M225 659.7l-4.64-14.27h9.28z"/><path d="M226.03 659.76l-1.03-.06-1.04.04-4.97-15.3h12zm-4.3-13.33l3.27 10.03 3.26-10.03z"/><path d="M515 579.7v40H165v40" stroke="#000" stroke-width="2" fill="none"/><path d="M165 659.7l-4.64-14.27h9.28z"/><path d="M166.03 659.76l-1.03-.06-1.04.04-4.97-15.3h12zm-4.3-13.33l3.27 10.03 3.26-10.03z"/><path d="M673.85 460.5v39.6H515v39.6" stroke="#000" stroke-width="2" fill="none"/><path d="M674.85 460.5h-2v-.5h2zM515 539.7l-4.64-14.27h9.28z"/><path d="M516.05 539.7h-2.1L509 524.43h12zm-4.3-13.27l3.25 10.03 3.26-10.03z"/><path d="M673.85 460.5v39.85H835v39.85" stroke="#000" stroke-width="2" fill="none"/><path d="M674.85 460.5h-2v-.5h2zM835 540.2l-4.64-14.27h9.28z"/><path d="M836.05 540.2h-2.1L829 524.93h12zm-4.3-13.27l3.25 10.03 3.26-10.03z"/><path d="M560 240h240v80H560z" fill="none"/><use xlink:href="#k" transform="matrix(1,0,0,1,565,245) translate(2.5999999999999943 17)"/><use xlink:href="#l" transform="matrix(1,0,0,1,565,245) translate(69.55 17)"/><use xlink:href="#m" transform="matrix(1,0,0,1,565,245) translate(157.4 17)"/><use xlink:href="#n" transform="matrix(1,0,0,1,565,245) translate(177.4 17)"/><use xlink:href="#o" transform="matrix(1,0,0,1,565,245) translate(212.4 17)"/><use xlink:href="#p" transform="matrix(1,0,0,1,565,245) translate(8.625 38.6)"/><use xlink:href="#q" transform="matrix(1,0,0,1,565,245) translate(41.575 38.6)"/><use xlink:href="#r" transform="matrix(1,0,0,1,565,245) translate(135.425 38.6)"/><use xlink:href="#s" transform="matrix(1,0,0,1,565,245) translate(191.375 38.6)"/><use xlink:href="#t" transform="matrix(1,0,0,1,565,245) translate(43.19999999999999 60.2)"/><use xlink:href="#u" transform="matrix(1,0,0,1,565,245) translate(64.14999999999999 60.2)"/><use xlink:href="#v" transform="matrix(1,0,0,1,565,245) translate(110.05 60.2)"/><path d="M605 460h80v-40h-80z" stroke="#000" stroke-width="2" fill="#fff"/><use xlink:href="#f" transform="matrix(1,0,0,1,610,425) translate(30 18.6)"/><path d="M665 460h80v-40h-80z" stroke="#000" stroke-width="2" fill="#fff"/><g><use xlink:href="#e" transform="matrix(1,0,0,1,670,425) translate(30 18.6)"/></g><path d="M605 370.56L645 340l40 30.56L669.72 420h-49.44z" stroke="#000" stroke-width="2" fill="#fff"/><g><use xlink:href="#f" transform="matrix(1,0,0,1,610,345) translate(30 38.6)"/></g><path d="M665 370.56L705 340l40 30.56L729.72 420h-49.44z" stroke="#000" stroke-width="2" fill="#fff"/><g><use xlink:href="#e" transform="matrix(1,0,0,1,670,345) translate(30 38.6)"/></g><path d="M568.75 525.2h212.5v80h-212.5z" fill="none"/><g><use xlink:href="#w" transform="matrix(1,0,0,1,573.75,530.2) translate(15.150000000000006 17)"/><use xlink:href="#x" transform="matrix(1,0,0,1,573.75,530.2) translate(101.9 17)"/><use xlink:href="#y" transform="matrix(1,0,0,1,573.75,530.2) translate(47.074999999999996 38.6)"/><use xlink:href="#z" transform="matrix(1,0,0,1,573.75,530.2) translate(83.975 38.6)"/><use xlink:href="#A" transform="matrix(1,0,0,1,573.75,530.2) translate(98.975 38.6)"/><use xlink:href="#B" transform="matrix(1,0,0,1,573.75,530.2) translate(4.25 60.2)"/><use xlink:href="#n" transform="matrix(1,0,0,1,573.75,530.2) translate(39.25 60.2)"/><use xlink:href="#C" transform="matrix(1,0,0,1,573.75,530.2) translate(74.25 60.2)"/><use xlink:href="#D" transform="matrix(1,0,0,1,573.75,530.2) translate(94.25 60.2)"/><use xlink:href="#E" transform="matrix(1,0,0,1,573.75,530.2) translate(121.2 60.2)"/></g><path d="M515 660.2h320v80H515z" fill="none"/><g><use xlink:href="#F" transform="matrix(1,0,0,1,520,665.2) translate(8.925000000000011 38.6)"/><use xlink:href="#G" transform="matrix(1,0,0,1,520,665.2) translate(96.47500000000002 38.6)"/><use xlink:href="#y" transform="matrix(1,0,0,1,520,665.2) translate(187.425 38.6)"/><use xlink:href="#v" transform="matrix(1,0,0,1,520,665.2) translate(224.32500000000002 38.6)"/></g><defs><path d="M169-182c-1-43-94-46-97-3 18 66 151 10 154 114 3 95-165 93-204 36-6-8-10-19-12-30l50-8c3 46 112 56 116 5-17-69-150-10-154-114-4-87 153-88 188-35 5 8 8 18 10 28" id="H"/><path d="M115-3C79 11 28 4 28-45v-112H4v-33h27l15-45h31v45h36v33H77v99c-1 23 16 31 38 25v30" id="I"/><path d="M85 4C-2 5 27-109 22-190h50c7 57-23 150 33 157 60-5 35-97 40-157h50l1 190h-47c-2-12 1-28-3-38-12 25-28 42-61 42" id="J"/><path d="M88-194c31-1 46 15 58 34l-1-101h50l1 261h-48c-2-10 0-23-3-31C134-8 116 4 84 4 32 4 16-41 15-95c0-56 19-97 73-99zm17 164c33 0 40-30 41-66 1-37-9-64-41-64s-38 30-39 65c0 43 13 65 39 65" id="K"/><path d="M185-48c-13 30-37 53-82 52C43 2 14-33 14-96s30-98 90-98c62 0 83 45 84 108H66c0 31 8 55 39 56 18 0 30-7 34-22zm-45-69c5-46-57-63-70-21-2 6-4 13-4 21h74" id="L"/><path d="M135-194c87-1 58 113 63 194h-50c-7-57 23-157-34-157-59 0-34 97-39 157H25l-1-190h47c2 12-1 28 3 38 12-26 28-41 61-42" id="M"/><g id="b"><use transform="matrix(0.05,0,0,0.05,0,0)" xlink:href="#H"/><use transform="matrix(0.05,0,0,0.05,12,0)" xlink:href="#I"/><use transform="matrix(0.05,0,0,0.05,17.95,0)" xlink:href="#J"/><use transform="matrix(0.05,0,0,0.05,28.899999999999995,0)" xlink:href="#K"/><use transform="matrix(0.05,0,0,0.05,39.85,0)" xlink:href="#L"/><use transform="matrix(0.05,0,0,0.05,49.85,0)" xlink:href="#M"/><use transform="matrix(0.05,0,0,0.05,60.800000000000004,0)" xlink:href="#I"/></g><path d="M136-208V0H84v-208H4v-40h212v40h-80" id="N"/><path d="M133-34C117-15 103 5 69 4 32 3 11-16 11-54c-1-60 55-63 116-61 1-26-3-47-28-47-18 1-26 9-28 27l-52-2c7-38 36-58 82-57s74 22 75 68l1 82c-1 14 12 18 25 15v27c-30 8-71 5-69-32zm-48 3c29 0 43-24 42-57-32 0-66-3-65 30 0 17 8 27 23 27" id="O"/><path d="M190-63c-7 42-38 67-86 67-59 0-84-38-90-98-12-110 154-137 174-36l-49 2c-2-19-15-32-35-32-30 0-35 28-38 64-6 74 65 87 74 30" id="P"/><path d="M114-157C55-157 80-60 75 0H25v-261h50l-1 109c12-26 28-41 61-42 86-1 58 113 63 194h-50c-7-57 23-157-34-157" id="Q"/><path d="M135-150c-39-12-60 13-60 57V0H25l-1-190h47c2 13-1 29 3 40 6-28 27-53 61-41v41" id="R"/><g id="c"><use transform="matrix(0.05,0,0,0.05,0,0)" xlink:href="#N"/><use transform="matrix(0.05,0,0,0.05,9.600000000000001,0)" xlink:href="#L"/><use transform="matrix(0.05,0,0,0.05,19.6,0)" xlink:href="#O"/><use transform="matrix(0.05,0,0,0.05,29.6,0)" xlink:href="#P"/><use transform="matrix(0.05,0,0,0.05,39.6,0)" xlink:href="#Q"/><use transform="matrix(0.05,0,0,0.05,50.550000000000004,0)" xlink:href="#L"/><use transform="matrix(0.05,0,0,0.05,60.550000000000004,0)" xlink:href="#R"/></g><path d="M67-125c0 54 23 88 75 88 28 0 53-7 68-21v-34h-60v-39h108v91C232-14 192 4 140 4 58 4 20-42 15-125 8-236 126-280 215-234c19 10 29 26 37 47l-47 15c-11-23-29-39-63-39-53 1-75 33-75 86" id="S"/><path d="M25-224v-37h50v37H25zM25 0v-190h50V0H25" id="T"/><g id="d"><use transform="matrix(0.05,0,0,0.05,0,0)" xlink:href="#S"/><use transform="matrix(0.05,0,0,0.05,14,0)" xlink:href="#J"/><use transform="matrix(0.05,0,0,0.05,24.950000000000003,0)" xlink:href="#O"/><use transform="matrix(0.05,0,0,0.05,34.95,0)" xlink:href="#R"/><use transform="matrix(0.05,0,0,0.05,41.95,0)" xlink:href="#K"/><use transform="matrix(0.05,0,0,0.05,52.900000000000006,0)" xlink:href="#T"/><use transform="matrix(0.05,0,0,0.05,57.900000000000006,0)" xlink:href="#O"/><use transform="matrix(0.05,0,0,0.05,67.9,0)" xlink:href="#M"/></g><path d="M101-251c82-7 93 87 43 132L82-64C71-53 59-42 53-27h129V0H18c2-99 128-94 128-182 0-28-16-43-45-43s-46 15-49 41l-32-3c6-41 34-60 81-64" id="U"/><use transform="matrix(0.05,0,0,0.05,0,0)" xlink:href="#U" id="e"/><path d="M27 0v-27h64v-190l-56 39v-29l58-41h29v221h61V0H27" id="V"/><use transform="matrix(0.05,0,0,0.05,0,0)" xlink:href="#V" id="f"/><path d="M126-127c33 6 58 20 58 59 0 88-139 92-164 29-3-8-5-16-6-25l32-3c6 27 21 44 54 44 32 0 52-15 52-46 0-38-36-46-79-43v-28c39 1 72-4 72-42 0-27-17-43-46-43-28 0-47 15-49 41l-32-3c6-42 35-63 81-64 48-1 79 21 79 65 0 36-21 52-52 59" id="W"/><use transform="matrix(0.05,0,0,0.05,0,0)" xlink:href="#W" id="g"/><path d="M155-56V0h-30v-56H8v-25l114-167h33v167h35v25h-35zm-30-156c-27 46-58 90-88 131h88v-131" id="X"/><use transform="matrix(0.05,0,0,0.05,0,0)" xlink:href="#X" id="h"/><path d="M54-142c48-35 137-8 131 61C196 18 31 33 14-55l32-4c7 23 22 37 52 37 35-1 51-22 54-58 4-55-73-65-99-34H22l8-134h141v27H59" id="Y"/><use transform="matrix(0.05,0,0,0.05,0,0)" xlink:href="#Y" id="i"/><path d="M110-160c48 1 74 30 74 79 0 53-28 85-80 85-65 0-83-55-86-122-5-90 50-162 133-122 14 7 22 21 27 39l-31 6c-5-40-67-38-82-6-9 19-15 44-15 74 11-20 30-34 60-33zm-7 138c34 0 49-23 49-58s-16-56-50-56c-29 0-50 16-49 49 1 36 15 65 50 65" id="Z"/><use transform="matrix(0.05,0,0,0.05,0,0)" xlink:href="#Z" id="j"/><path d="M76-208v77h127v40H76V0H24v-248h183v40H76" id="aa"/><path d="M220-157c-53 9-28 100-34 157h-49v-107c1-27-5-49-29-50C55-147 81-57 75 0H25l-1-190h47c2 12-1 28 3 38 10-53 101-56 108 0 13-22 24-43 59-42 82 1 51 116 57 194h-49v-107c-1-25-5-48-29-50" id="ab"/><path d="M25 0v-261h50V0H25" id="ac"/><path d="M123 10C108 53 80 86 19 72V37c35 8 53-11 59-39L3-190h52l48 148c12-52 28-100 44-148h51" id="ad"/><path d="M68-36c1 33-1 63-14 82H32c9-13 17-26 17-46H33v-36h35zM33-154v-36h35v36H33" id="ae"/><g id="k"><use transform="matrix(0.05,0,0,0.05,0,0)" xlink:href="#aa"/><use transform="matrix(0.05,0,0,0.05,10.950000000000001,0)" xlink:href="#O"/><use transform="matrix(0.05,0,0,0.05,20.950000000000003,0)" xlink:href="#ab"/><use transform="matrix(0.05,0,0,0.05,36.95,0)" xlink:href="#T"/><use transform="matrix(0.05,0,0,0.05,41.95,0)" xlink:href="#ac"/><use transform="matrix(0.05,0,0,0.05,46.95,0)" xlink:href="#ad"/><use transform="matrix(0.05,0,0,0.05,56.95,0)" xlink:href="#ae"/></g><path d="M96-169c-40 0-48 33-48 73s9 75 48 75c24 0 41-14 43-38l32 2c-6 37-31 61-74 61-59 0-76-41-82-99-10-93 101-131 147-64 4 7 5 14 7 22l-32 3c-4-21-16-35-41-35" id="af"/><path d="M100-194c62-1 85 37 85 99 1 63-27 99-86 99S16-35 15-95c0-66 28-99 85-99zM99-20c44 1 53-31 53-75 0-43-8-75-51-75s-53 32-53 75 10 74 51 75" id="ag"/><path d="M210-169c-67 3-38 105-44 169h-31v-121c0-29-5-50-35-48C34-165 62-65 56 0H25l-1-190h30c1 10-1 24 2 32 10-44 99-50 107 0 11-21 27-35 58-36 85-2 47 119 55 194h-31v-121c0-29-5-49-35-48" id="ah"/><path d="M115-194c55 1 70 41 70 98S169 2 115 4C84 4 66-9 55-30l1 105H24l-1-265h31l2 30c10-21 28-34 59-34zm-8 174c40 0 45-34 45-75s-6-73-45-74c-42 0-51 32-51 76 0 43 10 73 51 73" id="ai"/><path d="M114-163C36-179 61-72 57 0H25l-1-190h30c1 12-1 29 2 39 6-27 23-49 58-41v29" id="aj"/><path d="M24-231v-30h32v30H24zM24 0v-190h32V0H24" id="ak"/><path d="M135-143c-3-34-86-38-87 0 15 53 115 12 119 90S17 21 10-45l28-5c4 36 97 45 98 0-10-56-113-15-118-90-4-57 82-63 122-42 12 7 21 19 24 35" id="al"/><path d="M100-194c63 0 86 42 84 106H49c0 40 14 67 53 68 26 1 43-12 49-29l28 8c-11 28-37 45-77 45C44 4 14-33 15-96c1-61 26-98 85-98zm52 81c6-60-76-77-97-28-3 7-6 17-6 28h103" id="am"/><path d="M85-194c31 0 48 13 60 33l-1-100h32l1 261h-30c-2-10 0-23-3-31C134-8 116 4 85 4 32 4 16-35 15-94c0-66 23-100 70-100zm9 24c-40 0-46 34-46 75 0 40 6 74 45 74 42 0 51-32 51-76 0-42-9-74-50-73" id="an"/><g id="l"><use transform="matrix(0.05,0,0,0.05,0,0)" xlink:href="#af"/><use transform="matrix(0.05,0,0,0.05,9,0)" xlink:href="#ag"/><use transform="matrix(0.05,0,0,0.05,19,0)" xlink:href="#ah"/><use transform="matrix(0.05,0,0,0.05,33.95,0)" xlink:href="#ai"/><use transform="matrix(0.05,0,0,0.05,43.95,0)" xlink:href="#aj"/><use transform="matrix(0.05,0,0,0.05,49.900000000000006,0)" xlink:href="#ak"/><use transform="matrix(0.05,0,0,0.05,53.85,0)" xlink:href="#al"/><use transform="matrix(0.05,0,0,0.05,62.85,0)" xlink:href="#am"/><use transform="matrix(0.05,0,0,0.05,72.85000000000001,0)" xlink:href="#an"/></g><path d="M101-234c-31-9-42 10-38 44h38v23H63V0H32v-167H5v-23h27c-7-52 17-82 69-68v24" id="ao"/><g id="m"><use transform="matrix(0.05,0,0,0.05,0,0)" xlink:href="#ag"/><use transform="matrix(0.05,0,0,0.05,10,0)" xlink:href="#ao"/></g><path d="M117-194c89-4 53 116 60 194h-32v-121c0-31-8-49-39-48C34-167 62-67 57 0H25l-1-190h30c1 10-1 24 2 32 11-22 29-35 61-36" id="ap"/><g id="n"><use transform="matrix(0.05,0,0,0.05,0,0)" xlink:href="#ag"/><use transform="matrix(0.05,0,0,0.05,10,0)" xlink:href="#ap"/><use transform="matrix(0.05,0,0,0.05,20,0)" xlink:href="#am"/></g><path d="M59-47c-2 24 18 29 38 22v24C64 9 27 4 27-40v-127H5v-23h24l9-43h21v43h35v23H59v120" id="aq"/><g id="o"><use transform="matrix(0.05,0,0,0.05,0,0)" xlink:href="#aq"/><use transform="matrix(0.05,0,0,0.05,5,0)" xlink:href="#ag"/></g><path d="M206 0h-36l-40-164L89 0H53L-1-190h32L70-26l43-164h34l41 164 42-164h31" id="ar"/><g id="p"><use transform="matrix(0.05,0,0,0.05,0,0)" xlink:href="#aq"/><use transform="matrix(0.05,0,0,0.05,5,0)" xlink:href="#ar"/><use transform="matrix(0.05,0,0,0.05,17.950000000000003,0)" xlink:href="#ag"/></g><path d="M137-138c1-29-70-34-71-4 15 46 118 7 119 86 1 83-164 76-172 9l43-7c4 19 20 25 44 25 33 8 57-30 24-41C81-84 22-81 20-136c-2-80 154-74 161-7" id="as"/><g id="q"><use transform="matrix(0.05,0,0,0.05,0,0)" xlink:href="#S"/><use transform="matrix(0.05,0,0,0.05,14,0)" xlink:href="#J"/><use transform="matrix(0.05,0,0,0.05,24.950000000000003,0)" xlink:href="#O"/><use transform="matrix(0.05,0,0,0.05,34.95,0)" xlink:href="#R"/><use transform="matrix(0.05,0,0,0.05,41.95,0)" xlink:href="#K"/><use transform="matrix(0.05,0,0,0.05,52.900000000000006,0)" xlink:href="#T"/><use transform="matrix(0.05,0,0,0.05,57.900000000000006,0)" xlink:href="#O"/><use transform="matrix(0.05,0,0,0.05,67.9,0)" xlink:href="#M"/><use transform="matrix(0.05,0,0,0.05,78.85000000000001,0)" xlink:href="#as"/></g><path d="M141-36C126-15 110 5 73 4 37 3 15-17 15-53c-1-64 63-63 125-63 3-35-9-54-41-54-24 1-41 7-42 31l-33-3c5-37 33-52 76-52 45 0 72 20 72 64v82c-1 20 7 32 28 27v20c-31 9-61-2-59-35zM48-53c0 20 12 33 32 33 41-3 63-29 60-74-43 2-92-5-92 41" id="at"/><path d="M0 4l72-265h28L28 4H0" id="au"/><g id="r"><use transform="matrix(0.05,0,0,0.05,0,0)" xlink:href="#at"/><use transform="matrix(0.05,0,0,0.05,10,0)" xlink:href="#ap"/><use transform="matrix(0.05,0,0,0.05,20,0)" xlink:href="#an"/><use transform="matrix(0.05,0,0,0.05,30,0)" xlink:href="#au"/><use transform="matrix(0.05,0,0,0.05,35,0)" xlink:href="#ag"/><use transform="matrix(0.05,0,0,0.05,45,0)" xlink:href="#aj"/></g><g id="s"><use transform="matrix(0.05,0,0,0.05,0,0)" xlink:href="#ag"/><use transform="matrix(0.05,0,0,0.05,10,0)" xlink:href="#ap"/><use transform="matrix(0.05,0,0,0.05,20,0)" xlink:href="#am"/></g><g id="t"><use transform="matrix(0.05,0,0,0.05,0,0)" xlink:href="#ag"/><use transform="matrix(0.05,0,0,0.05,10,0)" xlink:href="#aj"/></g><g id="u"><use transform="matrix(0.05,0,0,0.05,0,0)" xlink:href="#ah"/><use transform="matrix(0.05,0,0,0.05,14.950000000000001,0)" xlink:href="#ag"/><use transform="matrix(0.05,0,0,0.05,24.950000000000003,0)" xlink:href="#aj"/><use transform="matrix(0.05,0,0,0.05,30.900000000000002,0)" xlink:href="#am"/></g><g id="v"><use transform="matrix(0.05,0,0,0.05,0,0)" xlink:href="#H"/><use transform="matrix(0.05,0,0,0.05,12,0)" xlink:href="#I"/><use transform="matrix(0.05,0,0,0.05,17.95,0)" xlink:href="#J"/><use transform="matrix(0.05,0,0,0.05,28.899999999999995,0)" xlink:href="#K"/><use transform="matrix(0.05,0,0,0.05,39.85,0)" xlink:href="#L"/><use transform="matrix(0.05,0,0,0.05,49.85,0)" xlink:href="#M"/><use transform="matrix(0.05,0,0,0.05,60.800000000000004,0)" xlink:href="#I"/><use transform="matrix(0.05,0,0,0.05,66.75,0)" xlink:href="#as"/></g><g id="w"><use transform="matrix(0.05,0,0,0.05,0,0)" xlink:href="#H"/><use transform="matrix(0.05,0,0,0.05,12,0)" xlink:href="#I"/><use transform="matrix(0.05,0,0,0.05,17.95,0)" xlink:href="#J"/><use transform="matrix(0.05,0,0,0.05,28.899999999999995,0)" xlink:href="#K"/><use transform="matrix(0.05,0,0,0.05,39.85,0)" xlink:href="#L"/><use transform="matrix(0.05,0,0,0.05,49.85,0)" xlink:href="#M"/><use transform="matrix(0.05,0,0,0.05,60.800000000000004,0)" xlink:href="#I"/><use transform="matrix(0.05,0,0,0.05,66.75,0)" xlink:href="#as"/><use transform="matrix(0.05,0,0,0.05,76.75,0)" xlink:href="#ae"/></g><g id="x"><use transform="matrix(0.05,0,0,0.05,0,0)" xlink:href="#at"/><use transform="matrix(0.05,0,0,0.05,10,0)" xlink:href="#al"/><use transform="matrix(0.05,0,0,0.05,19,0)" xlink:href="#al"/><use transform="matrix(0.05,0,0,0.05,28,0)" xlink:href="#ag"/><use transform="matrix(0.05,0,0,0.05,38,0)" xlink:href="#af"/><use transform="matrix(0.05,0,0,0.05,47,0)" xlink:href="#ak"/><use transform="matrix(0.05,0,0,0.05,50.95,0)" xlink:href="#at"/><use transform="matrix(0.05,0,0,0.05,60.95,0)" xlink:href="#aq"/><use transform="matrix(0.05,0,0,0.05,65.95,0)" xlink:href="#am"/><use transform="matrix(0.05,0,0,0.05,75.95,0)" xlink:href="#an"/></g><path d="M106-169C34-169 62-67 57 0H25v-261h32l-1 103c12-21 28-36 61-36 89 0 53 116 60 194h-32v-121c2-32-8-49-39-48" id="av"/><g id="y"><use transform="matrix(0.05,0,0,0.05,0,0)" xlink:href="#ar"/><use transform="matrix(0.05,0,0,0.05,12.950000000000001,0)" xlink:href="#ak"/><use transform="matrix(0.05,0,0,0.05,16.900000000000002,0)" xlink:href="#aq"/><use transform="matrix(0.05,0,0,0.05,21.900000000000002,0)" xlink:href="#av"/></g><use transform="matrix(0.05,0,0,0.05,0,0)" xlink:href="#at" id="z"/><g id="A"><use transform="matrix(0.05,0,0,0.05,0,0)" xlink:href="#aa"/><use transform="matrix(0.05,0,0,0.05,10.950000000000001,0)" xlink:href="#O"/><use transform="matrix(0.05,0,0,0.05,20.950000000000003,0)" xlink:href="#ab"/><use transform="matrix(0.05,0,0,0.05,36.95,0)" xlink:href="#T"/><use transform="matrix(0.05,0,0,0.05,41.95,0)" xlink:href="#ac"/><use transform="matrix(0.05,0,0,0.05,46.95,0)" xlink:href="#ad"/></g><g id="B"><use transform="matrix(0.05,0,0,0.05,0,0)" xlink:href="#at"/><use transform="matrix(0.05,0,0,0.05,10,0)" xlink:href="#ap"/><use transform="matrix(0.05,0,0,0.05,20,0)" xlink:href="#an"/></g><g id="C"><use transform="matrix(0.05,0,0,0.05,0,0)" xlink:href="#aq"/><use transform="matrix(0.05,0,0,0.05,5,0)" xlink:href="#ag"/></g><path d="M141 0L90-78 38 0H4l68-98-65-92h35l48 74 47-74h35l-64 92 68 98h-35" id="aw"/><g id="D"><use transform="matrix(0.05,0,0,0.05,0,0)" xlink:href="#al"/><use transform="matrix(0.05,0,0,0.05,9,0)" xlink:href="#ak"/><use transform="matrix(0.05,0,0,0.05,12.949999999999998,0)" xlink:href="#aw"/></g><g id="E"><use transform="matrix(0.05,0,0,0.05,0,0)" xlink:href="#N"/><use transform="matrix(0.05,0,0,0.05,9.600000000000001,0)" xlink:href="#L"/><use transform="matrix(0.05,0,0,0.05,19.6,0)" xlink:href="#O"/><use transform="matrix(0.05,0,0,0.05,29.6,0)" xlink:href="#P"/><use transform="matrix(0.05,0,0,0.05,39.6,0)" xlink:href="#Q"/><use transform="matrix(0.05,0,0,0.05,50.550000000000004,0)" xlink:href="#L"/><use transform="matrix(0.05,0,0,0.05,60.550000000000004,0)" xlink:href="#R"/><use transform="matrix(0.05,0,0,0.05,67.55000000000001,0)" xlink:href="#as"/></g><g id="F"><use transform="matrix(0.05,0,0,0.05,0,0)" xlink:href="#N"/><use transform="matrix(0.05,0,0,0.05,9.600000000000001,0)" xlink:href="#L"/><use transform="matrix(0.05,0,0,0.05,19.6,0)" xlink:href="#O"/><use transform="matrix(0.05,0,0,0.05,29.6,0)" xlink:href="#P"/><use transform="matrix(0.05,0,0,0.05,39.6,0)" xlink:href="#Q"/><use transform="matrix(0.05,0,0,0.05,50.550000000000004,0)" xlink:href="#L"/><use transform="matrix(0.05,0,0,0.05,60.550000000000004,0)" xlink:href="#R"/><use transform="matrix(0.05,0,0,0.05,67.55000000000001,0)" xlink:href="#as"/><use transform="matrix(0.05,0,0,0.05,77.55000000000001,0)" xlink:href="#ae"/></g><g id="G"><use transform="matrix(0.05,0,0,0.05,0,0)" xlink:href="#at"/><use transform="matrix(0.05,0,0,0.05,10,0)" xlink:href="#al"/><use transform="matrix(0.05,0,0,0.05,19,0)" xlink:href="#al"/><use transform="matrix(0.05,0,0,0.05,28,0)" xlink:href="#ag"/><use transform="matrix(0.05,0,0,0.05,38,0)" xlink:href="#af"/><use transform="matrix(0.05,0,0,0.05,47,0)" xlink:href="#ak"/><use transform="matrix(0.05,0,0,0.05,50.95,0)" xlink:href="#at"/><use transform="matrix(0.05,0,0,0.05,60.95,0)" xlink:href="#aq"/><use transform="matrix(0.05,0,0,0.05,65.95,0)" xlink:href="#am"/><use transform="matrix(0.05,0,0,0.05,75.95,0)" xlink:href="#an"/></g></defs></g></svg>